<svg width="1000" height="625" title="svg_title" version="1.1" xmlns="http://www.w3.org/2000/svg">
<g fill="#c7d0fd" fill-opacity="0.4" stroke="#8ea0f9" stroke-dasharray="2,2"><path d="M827.5359271179045,373L829,372.726314359513L833,371.8691463394273L837,370.8823248518901L841,369.75467357716775L843.3816275121624,369L845,368.43973666145916L849,366.89378478468905L853,365.1445523587779L853.3016670656833,365L857,363.03189774782174L860.3991350471815,361L861,360.59613998767713L865,357.52969573870143L865.6093849334648,357L869,353.5957649069361L869.5390422592025,353L872.6218229802946,349L873,348.41364018319393L875.0330410510126,345L876.9410022474156,341L877,340.8455671531688L878.3758523606527,337L879.4423574328655,333L880.178003784664,329L880.6127192780807,325L880.7717213030312,321L880.6763761591251,317L880.3447864388318,313L879.7923501611767,309L879.0321655864793,305L878.0753387866393,301L877,297.24451916120336L876.9312588905475,297L875.4005307512925,293L873.4840052501643,289L873,288.16859115691693L871.1830392518591,285L869,281.27271485840794L868.8427777785992,281L866.4576460780786,277L865,274.56080043416057L864.0014588476663,273L861.4186731735081,269L861,268.3593192120809L858.6247591014453,265L857,262.7448411055181L855.6717006196922,261L853,257.5778565452946L852.5197676675357,257L849.0924194400011,253L849,252.89543729779933L845.2880229381836,249L845,248.70890013568425L841.0022057546539,245L841,244.9980367611072L837,241.75290184696922L835.9677041299963,241L833,238.9330605224605L829.8574811943253,237L829,236.49450207106975L825,234.41799135693714L821.8113069740142,233L821,232.653548302385L817,231.17430205505684L813,229.92341929757828L809.6600366079796,229L809,228.8224528863031L805,227.8690027908113L801,227.0397155178091L797,226.32717795866859L793,225.72543027345228L789,225.2298341824196L786.6608340479594,225L785,224.83873093480065L781,224.54901517767814L777,224.35691591385063L773,224.262483759808L769,224.2669203074052L765,224.37261175623559L761,224.5832005024984L757,224.90376187675798L753,224.9576103174756L749,224.7331420593427L745,224.42386253849156L741,224.02063391510575L737,223.5109177028752L733,222.8777387898719L729,222.09812991452992L725,221.14078281094555L724.4982529648095,221L721,219.96539847931473L717,218.5170015755703L713.595081806456,217L713,216.71822840421208L709,214.98269451176424L705,213.32630121818232L704.0948787714264,213L701,211.82566692826873L697,210.42500790804843L693,209.13921921825045L692.4708944257127,209L689,208.04207072245185L685,207.14775332373108L681,206.5125682312439L677,205.84489908089608L673,205.13130705621893L672.2384983264745,205L669,204.4158471862072L665,203.65354746007034L661,202.79973993979064L657,201.7879309882171L654.3546796026795,201L653,200.58526843584804L649,199.19523280139782L645,198.27638247343936L641,199.14054742776608L639.3608354351743,201L640.1542546528804,205L641,206.77681759878624L641.7365739352952,209L643.4641100335509,213L645,216.46697935192162L645.2289278570735,217L647.232159107372,221L649,224.7840604972526L649.0981450966817,225L651.1082602370581,229L652.9390312798798,233L653,233.12402757854153L654.6838233656495,237L656.3132161640056,241L657,242.86253309098686L657.7154125940858,245L658.9685409407151,249L660.1120529790936,253L661,256.27326271661155L661.1846793832138,257L662.2196629334243,261L663.2194397825731,265L664.1971674891474,269L665,272.2948069904829L665.1647206027001,273L666.1368822437079,277L667.1096943304602,281L668.180466130432,285L669,287.7603033505209L669.3604878476186,289L670.6740177880176,293L672.1227192769575,297L673,299.18250239887317L673.7271868199603,301L675.4932666146789,305L677,308.11143810237803L677.4315984490298,309L679.5722730376021,313L681,315.43083267574434L681.9305629874623,317L684.5378717553298,321L685,321.647240123986L687.4506318386825,325L689,326.95137563463334L690.6678056426526,329L693,331.6317846219275L694.2447761504551,333L697,335.78044369339096L698.2418536305566,337L701,339.48794590844415L702.7234729322199,341L705,342.83683036701586L707.7567587696782,345L709,345.9104352900954L713,348.8790380302315L713.1597848131148,349L717,351.8839885848515L718.6508073631072,353L721,354.56752338746037L725,356.9515094856979L725.0906249547241,357L729,359.0553628877831L733,360.90842995846845L733.2228927273036,361L737,362.52018230018814L741,363.9235327236121L744.5413098890655,365L745,365.136372557547L749,366.1574440340644L753,367.00351249265316L757,367.8217059457419L761,368.6115303885083L763.113122405427,369L765,369.3370817925655L769,369.99948101431494L773,370.6115792127272L777,371.1756347841481L781,371.6935803111469L785,372.1669749191582L789,372.59708995049687L793,372.9848507171703L793.1765082519964,373L797,373.3177522959554L801,373.603892923124L805,373.8436130895627L809,374.0363738379649L813,374.18133482439373L817,374.27730456090285L821,374.0367943949957L825,373.4404967271023ZM321.05450755353206,433L325,432.4412959450864L329,431.74174668991077L333,430.898806854647L337,429.90012905293156L339.8426823675525,429L341,428.6064685150752L345,427.1863234733753L349,425.6762913592404L350.7106911516415,425L353,424.014523852999L357,422.19682585585247L359.52508400280794,421L361,420.22869671577416L365,418.0500898787743L366.84364795225713,417L369,415.6230687562687L372.89273211533646,413L373,412.91780900891206L377,409.7298481734417L377.8732838882646,409L381,406.0306632239498L382.0243986651835,405L385,401.5598752216048L385.46008168133255,401L388.3128552798578,397L389,395.8318080941723L390.6080100826765,393L392.45013133554164,389L393,387.50416521161424L393.9045276875056,385L395.0331259614155,381L395.86883799534974,377L396.4281599290599,373L396.7151509946567,369L396.721024686512,365L396.5966261754096,361L396.32430462455216,357L395.8569140759173,353L395.14831137974886,349L394.1270121539882,345L393,341.8227046323842L392.68744894952476,341L390.692453604536,337L389,334.515994650199L387.86627295683684,333L385,329.9104316356207L384.0713426740524,329L381,326.48847818460376L379.044639782986,325L377,323.33319681369636L374.22234936271695,321L373,319.89235563308023L369.9452035436591,317L369,316.0270397679737L366.2172769235699,313L365,311.5289398642997L363.0336509060687,309L361,306.0728267612105L360.29937236830926,305L358.09442794582196,301L357,298.8664581072039L356.08041556221656,297L354.3350767147141,293L353,289.54754691492593L352.79714966999654,289L352.25087122117714,285L352.81646126724047,281L353,280.68197466383157L356.2569888735827,277L357,276.5620638311161L361,275.14688741215684L365,274.808434137893L369,275.42801155600125L373,276.7885577770061L373.4083109937835,277L377,279.10659560971953L379.66108338524987,281L381,282.0626980994101L384.5186702151623,285L385,285.4158009700691L389,288.73897808707227L389.33343071762647,289L393,291.8492858270463L394.64315492957746,293L397,294.5615430552902L401,296.89860833892L401.23581996741916,297L405,298.5304831501606L409,299.5718835403334L413,300.20532174510737L417,300.5442804204625L421,300.66011622927437L425,300.5995429405149L429,300.3891041371599L433,300.0506048462433L437,299.5986734559995L441,299.13874450981274L445,298.67081656123935L449,298.2313763408537L453,297.78315661001176L457,297.3249129827736L459.744426500504,297L461,296.8570535623747L465,296.3803270603979L469,295.8902677541909L473,295.25020677938363L477,294.45514148319995L481,293.50130568687035L482.784485636152,293L485,292.3882850462661L489,291.1062284766544L493,289.63432536724486L494.5149563275479,289L497,287.967156923968L501,286.07964517849524L503.0450398673338,285L505,283.9901157341336L509,281.6844707251255L510.181054790296,281L513,279.402118121348L517,277.10476598995996L517.1814113271496,277L521,274.69380815726777L523.7501111428724,273L525,272.19395031196825L529,269.5678036617075L529.8489821126151,269L533,266.8170533229996L535.590028234691,265L537,263.9750647363914L541,261.1333971255802L541.1937041376423,261L545,258.28201214700704L546.7876335800686,257L549,255.35304175881106L552.1380050120086,253L553,252.32849034551037L557,249.1807556253052L557.2280339110913,249L561,245.89072054939965L562.0653113697776,245L565,242.4488922416714L566.6422639538679,241L569,238.8384214615141L570.9751234220405,237L573,234.9918212685879L574.9743061130271,233L577,230.81050273282608L578.8479643124507,229L581,226.72775734038828L582.8216391865562,225L585,222.75495876915352L586.9138924830521,221L589,218.89774375994034L591.1380327289326,217L593,215.15492150380862L595.4948114937662,213L597,211.51607350695855L600.221399263072,209L601,208.28921776083092L605,205.66980113724549L606.8283673618733,205L609,204.00000560447648L613,202.50583647442255L617,201.37839513361263L618.6022867451766,201L621,200.125630598856L625,198.78201374587258L629,197.46586733050225L630.3665841924397,197L631.6647455600493,193L630.3123314123444,189L629,186.48102217709618L628.4918803879508,185L626.5645724812075,181L625,178.14028369718693L624.5438320207693,177L622.093049259851,173L621,171.628285296711L619.2994281784363,169L617,165.85991854855922L616.4743938733708,165L613.7005883188376,161L613,160.09096210426839L610.9918322204996,157L609,154.1898157668681L608.2730343842069,153L605.5912100707575,149L605,148.19044899227305L603.1506982775007,145L601,141.56193952317994L600.7069595189311,141L598.4141996526881,137L597,134.71559049504606L596.077895408428,133L593.7418206425056,129L593,127.75299388211732L591.41171183679,125L589.02747158079,121L589,120.95569890769843L586.579196156185,117L585,114.5552141428675L583.9994610732563,113L581.2530554757036,109L581,108.65409975925695L578.2976043512269,105L577,103.3761520652879L575.0645447343475,101L573,98.66728742326791L571.4746066588718,97L569,94.45355791259237L567.5349082929714,93L565,90.63026599666858L563.1855203698532,89L561,87.14725861466178L558.3567497473742,85L557,83.9632874990593L553,81.04360256162232L552.9381527964016,81L549,78.38271920163493L546.8131577160154,77L545,75.91754232976584L541,73.63437973035124L539.8464480918135,73L537,71.51811434423288L533,69.53257625082225L531.8892527851792,69L529,67.60993640882089L525,65.84841399708563L522.9110610735338,65L521,64.22091435712665L517,62.7140647099842L513,61.49671617482923L510.9420406562714,61L509,60.5361147336005L505,59.81221291462984L501,59.31094594939418L497,59.020866350561306L493,58.94074949807006L489,59.06913815010694L485,59.40970047130338L481,59.85715217087659L477,60.41697892751759L473.3291336189235,61L473,61.05311917948842L469,61.773027342993856L465,62.565170754190234L461,63.433686818277465L457,64.38316171124853L454.6013696050028,65L453,65.41616973992453L449,66.53673225625755L445,67.75405244612514L441.22032874297895,69L441,69.07385763400185L437,70.50147512408537L433,72.04597411114034L430.71146789037437,73L429,73.73518241612766L425,75.58334570206759L422.16552534902996,77L421,77.60024451755015L417,79.68037777393678L414.4963830753783,81L413,81.80810818468879L409,83.9735744643204L406.82805584341804,85L405,85.87776175430693L401,87.48650921767978L397,88.77091564110458L396.0258621217788,89L393,89.70280195570706L389,90.28352642430104L385,90.51187723898784L381,90.37292179411344L377,89.8752749962224L373,89.11991082031739L372.52532793026273,89L369,88.12054058533633L365,87.14751206290737L361,86.20288115368854L357,85.39137728279655L354.73865666297206,85L353,84.7047245018837L349,84.13286604279673L345,83.66689990705132L341,83.30041767204136L337,83.02836705166334L333,82.84690677375141L329,82.75327650700643L325,82.74571110287445L321,82.80097103725919L317,82.91871921143809L313,83.09885680670388L309,83.38160176451584L305,83.76836790984416L301,84.26150304574196L297,84.94199433378222L296.732990048377,85L293,85.81059033361439L289,86.87807660643031L285,88.11709433811038L282.50174218803926,89L281,89.52850281256616L277,91.10901564543661L273,92.92649985494427L272.8570040025468,93L269,94.96661396674318L265.48303792058954,97L265,97.27644718507412L261,99.83249967920472L259.2087782220281,101L257,102.4209439913015L253.0816883215055,105L253,105.05294479971633L249,107.53333374048344L246.53659802364518,109L245,109.90082817625193L241,112.13180652273945L239.35642144143617,113L237,114.25881572877142L233,116.26592652294607L231.4311650793412,117L229,118.14139322416713L225,119.87761948396434L222.18357686044544,121L221,121.4707823083022L217,122.91357264264832L213,124.24476943888124L210.52348988698247,125L209,125.46338957185247L205,126.57027820246583L201,127.57494080867065L197,128.47946517750648L194.4034342116086,129L193,129.28316448955206L189,129.9869888928256L185,130.59462777515625L181,131.10447077011065L177,131.77599111912633L173,132.63133497497222L171.58713169154703,133L169,133.70740205001766L165,134.8644106045998L161,136.032310454033L157.68235249073228,137L157,137.20686404548542L153,138.38463900088914L149,139.6990061106883L145.42852620346395,141L145,141.16514832943182L141,142.95314581468557L137.19738784282896,145L137,145.11877262996683L133,147.8599175841323L131.5556926047322,149L129,151.29719707944747L127.32240170978446,153L125,155.72880340187794L124.02504496037011,157L121.40610293527448,161L121,161.71539895413048L119.28589084640316,165L117.54064672628226,169L117,170.46626083677L116.1285423134243,173L114.99078755970794,177L114.08396327810584,181L113.44247184684406,185L113.03322385408512,189L113,189.63612632350925L112.83137212858429,193L112.81342016472848,197L112.96366644462097,201L113,201.46457223843265L113.27045341451179,205L113.72277784973016,209L114.31234807822341,213L115.03291649061777,217L115.60135800608361,221L116.02698618331266,225L116.3180439904018,229L116.4818461982959,233L116.52486837915887,237L116.4528620694606,241L116.27093603641521,245L116.189008993073,249L116.20293117009027,253L116.26973497399831,257L116.38853803577797,261L116.55889893625624,265L116.78079143920405,269L117,271.6724932141675L117.10926565982857,273L117.54838061485515,277L118.10270026746934,281L118.77971678012864,285L119.58949311298642,289L120.48893590756478,293L121,295.0665922936416L121.48211625763338,297L122.5764865224345,301L123.78639809119136,305L125,308.63552639176413L125.12202624386754,309L126.57309398041866,313L128.17533727370073,317L129,318.8870718378693L129.92553508222352,321L131.8381557659269,325L133,327.1248770160696L134.02620251407916,329L136.5055355583113,333L137,333.7144639669199L139.26998556647249,337L141,339.2401248961254L142.35402872581778,341L145,344.1051845598273L145.75808193964843,345L149,348.48190808764423L149.47863917475433,349L153,352.4909678338097L153.50848651926958,353L157,356.4526460724305L157.54718493834196,357L161,360.4060302550994L161.59469538359843,361L165,364.30007975200465L165.75569326532377,365L169,367.91085614239864L170.27080669650456,369L173,371.2639632336775L175.18148125985527,373L177,374.3990592773083L180.50883422001112,377L181,377.37061072015047L185,380.311182300885L185.95927779703447,381L189,383.22772606063813L191.46792497792927,385L193,386.1216646071946L196.99325138276924,389L197,389.00494904316463L201,391.91643039349594L202.50260678801527,393L205,394.8234051086257L208.00648710272026,397L209,397.7086491766279L213,400.5417336575475L213.63803260113212,401L217,403.436365351723L219.14290548221993,405L221,406.3617269295909L224.58613064457626,409L225,409.3046481261732L229,412.26410053764005L230.01184619475617,413L233,415.16353838708346L235.8130992936609,417L237,417.77011667184206L241,420.11357647761906L242.68385219783073,421L245,422.2105729371426L249,424.0783653537468L251.21582783366466,425L253,425.73582624465564L257,427.198738895284L261,428.4802961086948L262.85839811906766,429L265,429.5931156634739L269,430.54615558231046L273,431.3503018049437L277,432.04753463676127L281,432.64097708242844L283.91966009418826,433L285,433.1308933287247L289,433.5157758550024L293,433.8019376190091L297,433.99012904940844L301,434.08037752400264L305,434.07191815626254L309,433.9632094416386L313,433.7518864886614L317,433.43467318741773L321,433.0073500076329ZM590.6761648017149,561L593,560.7417969090646L597,560.1964970779453L601,559.5463598632607L605,558.7850881130879L609,557.9043862742124L612.5834354265252,557L613,556.8904374806582L617,555.7006493387679L621,554.3446609845638L624.4929493456602,553L625,552.7939171466053L629,550.9738651035228L632.7974287774006,549L633,548.8875106005041L637,546.4047427195296L638.9956682385839,545L641,543.4693578846645L644.0477921869067,541L645,540.1569219390403L648.3724510123403,537L649,536.3156306269206L651.8976594215301,533L653,531.5078955630655L654.7776947849353,529L657,525.2195213040407L657.124554244332,525L659.0157881558763,521L660.5157781131775,517L661,515.336892989267L661.6664791653099,513L662.5011645838372,509L663.0435884181572,505L663.3087419405759,501L663.3049303534227,497L663.0342924812654,493L662.5109873339636,489L661.7238756720774,485L661,482.2801215969216L660.6539522110929,481L659.2735599430156,477L657.5460748550342,473L657,471.9497348638464L655.4203588369351,469L653,465.2544125031103L652.8298428967317,465L649.7043495534868,461L649,460.22404159146504L645.9450106383536,457L645,456.1315428121694L641.429887299403,453L641,452.66216936638546L637,449.64926258296236L636.0100084607012,449L633,447.08558733165125L629.1534289124036,445L629,444.91943519024085L625,443.0948112889638L621,441.5711341204345L619.2148844140705,441L617,440.3109446232994L613,439.2847075088845L609,438.46576639000386L605,437.834865370649L601,437.3931106133333L597,437.13057693725807L593,437.0407742283593L589,437.12031016750245L585,437.3687400212525L581,437.7884962794369L577,438.38498751590157L573,439.038422372205L569,439.75038285432345L565,440.61629546013774L563.4998465304823,441L561,441.6551544069704L557,442.87878777960395L553,444.2991372374605L551.2692475586911,445L549,445.94682039550753L545,447.7973163295776L542.6598393327964,449L541,449.88297802816896L537,452.2449642878365L535.8441925987823,453L533,454.9629112150776L530.3408438860292,457L529,458.08238262757095L525.4141755836482,461L525,461.35331460679436L521,464.78216564803006L520.7474529635901,465L517,468.3685668902393L516.3043621851656,469L513,472.4386984384406L512.4661367814284,473L509.18510435460166,477L509,477.2642062884813L506.40365001341365,481L505,483.42263956356305L504.0934633704218,485L502.201001315045,489L501,492.1877605365298L500.69562440542427,493L499.53805331268325,497L498.7133050903848,501L498.20272095326675,505L497.99670111236503,509L498.0942309904299,513L498.5028403227709,517L499.23931996193505,521L500.3310487272107,525L501,526.825900925596L501.8254801367102,529L503.7879985417885,533L505,534.9733786707883L506.31515361562253,537L509,540.3558349394315L509.5516136029257,541L513,544.5291002567972L513.4973971742762,545L517,547.9352448620908L518.3876750120255,549L521,550.7959760003779L524.5429346384271,553L525,553.2574168692333L529,555.3431798247209L532.5586111067719,557L533,557.1884032334859L537,558.6384947730153L541,559.8119077525118L545,560.7429840551337L546.4118940693771,561L549,561.4530179271272L553,561.9712105846573L557,562.3163906998167L561,562.4999809011241L565,562.5305461197929L569,562.4141855595401L573,562.1548351523528L577,561.948822675811L581,561.7948861131905L585,561.5419834156486L589,561.18991073892Z"></path></g><g stroke="white"><circle cx="634" cy="505" fill="#8ea0f9" r="5.319265933204994"></circle><circle cx="660" cy="185" fill="#8ea0f9" r="5.109649485919373"></circle><circle cx="515" cy="522" fill="#8ea0f9" r="5.030395371468433"></circle><circle cx="870" cy="339" fill="#8ea0f9" r="5"></circle><circle cx="812" cy="246" fill="#8ea0f9" r="5.090215802933601"></circle><circle cx="770" cy="332" fill="#8ea0f9" r="5.820012712710334"></circle><circle cx="698" cy="294" fill="#8ea0f9" r="8.317325052884549"></circle><circle cx="128" cy="161" fill="#8ea0f9" r="14.014470681365413"></circle><circle cx="224" cy="196" fill="#8ea0f9" r="14.595278881329534"></circle><circle cx="308" cy="165" fill="#8ea0f9" r="9.762209774133623"></circle><circle cx="317" cy="121" fill="#8ea0f9" r="8.910180214551223"></circle><circle cx="454" cy="250" fill="#8ea0f9" r="9.316352939773513"></circle><circle cx="380" cy="203" fill="#8ea0f9" r="9.390572759161742"></circle><circle cx="522" cy="226" fill="#8ea0f9" r="9.39665886842808"></circle><circle cx="475" cy="154" fill="#8ea0f9" r="9.456753835411323"></circle><circle cx="463" cy="109" fill="#8ea0f9" r="10.217439422665532"></circle><circle cx="539" cy="126" fill="#8ea0f9" r="11.165251850734009"></circle><circle cx="220" cy="231" fill="#8ea0f9" r="15"></circle><circle cx="156" cy="295" fill="#8ea0f9" r="14.316180068189475"></circle><circle cx="216" cy="320" fill="#8ea0f9" r="11.761814957741692"></circle><circle cx="281" cy="343" fill="#8ea0f9" r="10.64077404946152"></circle><circle cx="286" cy="388" fill="#8ea0f9" r="8.839166455260019"></circle><circle cx="389" cy="380" fill="#8ea0f9" r="6.803398938456944"></circle><circle cx="583" cy="484" fill="#8ea0f9" r="5.655936560332483"></circle></g><g><text x="634" y="495" text-anchor="middle" style="font-size: 14px;">00:00~01:00</text><text x="660" y="175" text-anchor="middle" style="font-size: 14px;">01:00~02:00</text><text x="515" y="512" text-anchor="middle" style="font-size: 14px;">02:00~03:00</text><text x="870" y="329" text-anchor="middle" style="font-size: 14px;">03:00~04:00</text><text x="812" y="236" text-anchor="middle" style="font-size: 14px;">04:00~05:00</text><text x="770" y="322" text-anchor="middle" style="font-size: 14px;">05:00~06:00</text><text x="698" y="283" text-anchor="middle" style="font-size: 14px;">06:00~07:00</text><text x="128" y="149" text-anchor="middle" style="font-size: 14px;">07:00~08:00</text><text x="224" y="183" text-anchor="middle" style="font-size: 14px;">08:00~09:00</text><text x="308" y="154" text-anchor="middle" style="font-size: 14px;">09:00~10:00</text><text x="317" y="110" text-anchor="middle" style="font-size: 14px;">10:00~11:00</text><text x="454" y="239" text-anchor="middle" style="font-size: 14px;">11:00~12:00</text><text x="380" y="192" text-anchor="middle" style="font-size: 14px;">12:00~13:00</text><text x="522" y="214" text-anchor="middle" style="font-size: 14px;">13:00~14:00</text><text x="475" y="143" text-anchor="middle" style="font-size: 14px;">14:00~15:00</text><text x="463" y="98" text-anchor="middle" style="font-size: 14px;">15:00~16:00</text><text x="539" y="114" text-anchor="middle" style="font-size: 14px;">16:00~17:00</text><text x="220" y="218" text-anchor="middle" style="font-size: 14px;">17:00~18:00</text><text x="156" y="282" text-anchor="middle" style="font-size: 14px;">18:00~19:00</text><text x="216" y="308" text-anchor="middle" style="font-size: 14px;">19:00~20:00</text><text x="281" y="331" text-anchor="middle" style="font-size: 14px;">20:00~21:00</text><text x="286" y="377" text-anchor="middle" style="font-size: 14px;">21:00~22:00</text><text x="389" y="369" text-anchor="middle" style="font-size: 14px;">22:00~23:00</text><text x="583" y="474" text-anchor="middle" style="font-size: 14px;">23:00~00:00</text></g></svg>