<?xml version="1.0" encoding="utf-8" standalone="no"?>
<!DOCTYPE svg PUBLIC "-//W3C//DTD SVG 1.1//EN"
  "http://www.w3.org/Graphics/SVG/1.1/DTD/svg11.dtd">
<!-- Created with matplotlib (http://matplotlib.org/) -->
<svg height="288pt" version="1.1" viewBox="0 0 432 288" width="432pt" xmlns="http://www.w3.org/2000/svg" xmlns:xlink="http://www.w3.org/1999/xlink">
 <defs>
  <style type="text/css">
*{stroke-linecap:butt;stroke-linejoin:round;}
  </style>
 </defs>
 <g id="figure_1">
  <g id="patch_1">
   <path d="M 0 288 
L 432 288 
L 432 0 
L 0 0 
z
" style="fill:#ffffff;"/>
  </g>
  <g id="axes_1">
   <g id="patch_2">
    <path d="M 43.05 247.2 
L 421.2 247.2 
L 421.2 10.8 
L 43.05 10.8 
z
" style="fill:#eaeaf2;"/>
   </g>
   <g id="matplotlib.axis_1">
    <g id="xtick_1">
     <g id="line2d_1">
      <path clip-path="url(#p997ec2df37)" d="M 60.238636 247.2 
L 60.238636 10.8 
" style="fill:none;stroke:#ffffff;stroke-linecap:round;"/>
     </g>
     <g id="line2d_2"/>
     <g id="text_1">
      <!-- 0 -->
      <defs>
       <path d="M 4.15625 35.296875 
Q 4.15625 48 6.765625 55.734375 
Q 9.375 63.484375 14.515625 67.671875 
Q 19.671875 71.875 27.484375 71.875 
Q 33.25 71.875 37.59375 69.546875 
Q 41.9375 67.234375 44.765625 62.859375 
Q 47.609375 58.5 49.21875 52.21875 
Q 50.828125 45.953125 50.828125 35.296875 
Q 50.828125 22.703125 48.234375 14.96875 
Q 45.65625 7.234375 40.5 3 
Q 35.359375 -1.21875 27.484375 -1.21875 
Q 17.140625 -1.21875 11.234375 6.203125 
Q 4.15625 15.140625 4.15625 35.296875 
z
M 13.1875 35.296875 
Q 13.1875 17.671875 17.3125 11.828125 
Q 21.4375 6 27.484375 6 
Q 33.546875 6 37.671875 11.859375 
Q 41.796875 17.71875 41.796875 35.296875 
Q 41.796875 52.984375 37.671875 58.78125 
Q 33.546875 64.59375 27.390625 64.59375 
Q 21.34375 64.59375 17.71875 59.46875 
Q 13.1875 52.9375 13.1875 35.296875 
z
" id="ArialMT-30"/>
      </defs>
      <g style="fill:#262626;" transform="translate(57.458168 261.357812)scale(0.1 -0.1)">
       <use xlink:href="#ArialMT-30"/>
      </g>
     </g>
    </g>
    <g id="xtick_2">
     <g id="line2d_3">
      <path clip-path="url(#p997ec2df37)" d="M 103.426165 247.2 
L 103.426165 10.8 
" style="fill:none;stroke:#ffffff;stroke-linecap:round;"/>
     </g>
     <g id="line2d_4"/>
     <g id="text_2">
      <!-- 25 -->
      <defs>
       <path d="M 50.34375 8.453125 
L 50.34375 0 
L 3.03125 0 
Q 2.9375 3.171875 4.046875 6.109375 
Q 5.859375 10.9375 9.828125 15.625 
Q 13.8125 20.3125 21.34375 26.46875 
Q 33.015625 36.03125 37.109375 41.625 
Q 41.21875 47.21875 41.21875 52.203125 
Q 41.21875 57.421875 37.46875 61 
Q 33.734375 64.59375 27.734375 64.59375 
Q 21.390625 64.59375 17.578125 60.78125 
Q 13.765625 56.984375 13.71875 50.25 
L 4.6875 51.171875 
Q 5.609375 61.28125 11.65625 66.578125 
Q 17.71875 71.875 27.9375 71.875 
Q 38.234375 71.875 44.234375 66.15625 
Q 50.25 60.453125 50.25 52 
Q 50.25 47.703125 48.484375 43.546875 
Q 46.734375 39.40625 42.65625 34.8125 
Q 38.578125 30.21875 29.109375 22.21875 
Q 21.1875 15.578125 18.9375 13.203125 
Q 16.703125 10.84375 15.234375 8.453125 
z
" id="ArialMT-32"/>
       <path d="M 4.15625 18.75 
L 13.375 19.53125 
Q 14.40625 12.796875 18.140625 9.390625 
Q 21.875 6 27.15625 6 
Q 33.5 6 37.890625 10.78125 
Q 42.28125 15.578125 42.28125 23.484375 
Q 42.28125 31 38.0625 35.34375 
Q 33.84375 39.703125 27 39.703125 
Q 22.75 39.703125 19.328125 37.765625 
Q 15.921875 35.84375 13.96875 32.765625 
L 5.71875 33.84375 
L 12.640625 70.609375 
L 48.25 70.609375 
L 48.25 62.203125 
L 19.671875 62.203125 
L 15.828125 42.96875 
Q 22.265625 47.46875 29.34375 47.46875 
Q 38.71875 47.46875 45.15625 40.96875 
Q 51.609375 34.46875 51.609375 24.265625 
Q 51.609375 14.546875 45.953125 7.46875 
Q 39.0625 -1.21875 27.15625 -1.21875 
Q 17.390625 -1.21875 11.203125 4.25 
Q 5.03125 9.71875 4.15625 18.75 
z
" id="ArialMT-35"/>
      </defs>
      <g style="fill:#262626;" transform="translate(97.865227 261.357812)scale(0.1 -0.1)">
       <use xlink:href="#ArialMT-32"/>
       <use x="55.615234" xlink:href="#ArialMT-35"/>
      </g>
     </g>
    </g>
    <g id="xtick_3">
     <g id="line2d_5">
      <path clip-path="url(#p997ec2df37)" d="M 146.613693 247.2 
L 146.613693 10.8 
" style="fill:none;stroke:#ffffff;stroke-linecap:round;"/>
     </g>
     <g id="line2d_6"/>
     <g id="text_3">
      <!-- 50 -->
      <g style="fill:#262626;" transform="translate(141.052756 261.357812)scale(0.1 -0.1)">
       <use xlink:href="#ArialMT-35"/>
       <use x="55.615234" xlink:href="#ArialMT-30"/>
      </g>
     </g>
    </g>
    <g id="xtick_4">
     <g id="line2d_7">
      <path clip-path="url(#p997ec2df37)" d="M 189.801222 247.2 
L 189.801222 10.8 
" style="fill:none;stroke:#ffffff;stroke-linecap:round;"/>
     </g>
     <g id="line2d_8"/>
     <g id="text_4">
      <!-- 75 -->
      <defs>
       <path d="M 4.734375 62.203125 
L 4.734375 70.65625 
L 51.078125 70.65625 
L 51.078125 63.8125 
Q 44.234375 56.546875 37.515625 44.484375 
Q 30.8125 32.421875 27.15625 19.671875 
Q 24.515625 10.6875 23.78125 0 
L 14.75 0 
Q 14.890625 8.453125 18.0625 20.40625 
Q 21.234375 32.375 27.171875 43.484375 
Q 33.109375 54.59375 39.796875 62.203125 
z
" id="ArialMT-37"/>
      </defs>
      <g style="fill:#262626;" transform="translate(184.240285 261.357812)scale(0.1 -0.1)">
       <use xlink:href="#ArialMT-37"/>
       <use x="55.615234" xlink:href="#ArialMT-35"/>
      </g>
     </g>
    </g>
    <g id="xtick_5">
     <g id="line2d_9">
      <path clip-path="url(#p997ec2df37)" d="M 232.988751 247.2 
L 232.988751 10.8 
" style="fill:none;stroke:#ffffff;stroke-linecap:round;"/>
     </g>
     <g id="line2d_10"/>
     <g id="text_5">
      <!-- 100 -->
      <defs>
       <path d="M 37.25 0 
L 28.46875 0 
L 28.46875 56 
Q 25.296875 52.984375 20.140625 49.953125 
Q 14.984375 46.921875 10.890625 45.40625 
L 10.890625 53.90625 
Q 18.265625 57.375 23.78125 62.296875 
Q 29.296875 67.234375 31.59375 71.875 
L 37.25 71.875 
z
" id="ArialMT-31"/>
      </defs>
      <g style="fill:#262626;" transform="translate(224.647344 261.357812)scale(0.1 -0.1)">
       <use xlink:href="#ArialMT-31"/>
       <use x="55.615234" xlink:href="#ArialMT-30"/>
       <use x="111.230469" xlink:href="#ArialMT-30"/>
      </g>
     </g>
    </g>
    <g id="xtick_6">
     <g id="line2d_11">
      <path clip-path="url(#p997ec2df37)" d="M 276.176279 247.2 
L 276.176279 10.8 
" style="fill:none;stroke:#ffffff;stroke-linecap:round;"/>
     </g>
     <g id="line2d_12"/>
     <g id="text_6">
      <!-- 125 -->
      <g style="fill:#262626;" transform="translate(267.834873 261.357812)scale(0.1 -0.1)">
       <use xlink:href="#ArialMT-31"/>
       <use x="55.615234" xlink:href="#ArialMT-32"/>
       <use x="111.230469" xlink:href="#ArialMT-35"/>
      </g>
     </g>
    </g>
    <g id="xtick_7">
     <g id="line2d_13">
      <path clip-path="url(#p997ec2df37)" d="M 319.363808 247.2 
L 319.363808 10.8 
" style="fill:none;stroke:#ffffff;stroke-linecap:round;"/>
     </g>
     <g id="line2d_14"/>
     <g id="text_7">
      <!-- 150 -->
      <g style="fill:#262626;" transform="translate(311.022401 261.357812)scale(0.1 -0.1)">
       <use xlink:href="#ArialMT-31"/>
       <use x="55.615234" xlink:href="#ArialMT-35"/>
       <use x="111.230469" xlink:href="#ArialMT-30"/>
      </g>
     </g>
    </g>
    <g id="xtick_8">
     <g id="line2d_15">
      <path clip-path="url(#p997ec2df37)" d="M 362.551336 247.2 
L 362.551336 10.8 
" style="fill:none;stroke:#ffffff;stroke-linecap:round;"/>
     </g>
     <g id="line2d_16"/>
     <g id="text_8">
      <!-- 175 -->
      <g style="fill:#262626;" transform="translate(354.20993 261.357812)scale(0.1 -0.1)">
       <use xlink:href="#ArialMT-31"/>
       <use x="55.615234" xlink:href="#ArialMT-37"/>
       <use x="111.230469" xlink:href="#ArialMT-35"/>
      </g>
     </g>
    </g>
    <g id="xtick_9">
     <g id="line2d_17">
      <path clip-path="url(#p997ec2df37)" d="M 405.738865 247.2 
L 405.738865 10.8 
" style="fill:none;stroke:#ffffff;stroke-linecap:round;"/>
     </g>
     <g id="line2d_18"/>
     <g id="text_9">
      <!-- 200 -->
      <g style="fill:#262626;" transform="translate(397.397459 261.357812)scale(0.1 -0.1)">
       <use xlink:href="#ArialMT-32"/>
       <use x="55.615234" xlink:href="#ArialMT-30"/>
       <use x="111.230469" xlink:href="#ArialMT-30"/>
      </g>
     </g>
    </g>
    <g id="text_10">
     <!-- Epochs - BikeNYC -->
     <defs>
      <path d="M 7.90625 0 
L 7.90625 71.578125 
L 59.671875 71.578125 
L 59.671875 63.140625 
L 17.390625 63.140625 
L 17.390625 41.21875 
L 56.984375 41.21875 
L 56.984375 32.8125 
L 17.390625 32.8125 
L 17.390625 8.453125 
L 61.328125 8.453125 
L 61.328125 0 
z
" id="ArialMT-45"/>
      <path d="M 6.59375 -19.875 
L 6.59375 51.859375 
L 14.59375 51.859375 
L 14.59375 45.125 
Q 17.4375 49.078125 21 51.046875 
Q 24.5625 53.03125 29.640625 53.03125 
Q 36.28125 53.03125 41.359375 49.609375 
Q 46.4375 46.1875 49.015625 39.953125 
Q 51.609375 33.734375 51.609375 26.3125 
Q 51.609375 18.359375 48.75 11.984375 
Q 45.90625 5.609375 40.453125 2.21875 
Q 35.015625 -1.171875 29 -1.171875 
Q 24.609375 -1.171875 21.109375 0.6875 
Q 17.625 2.546875 15.375 5.375 
L 15.375 -19.875 
z
M 14.546875 25.640625 
Q 14.546875 15.625 18.59375 10.84375 
Q 22.65625 6.0625 28.421875 6.0625 
Q 34.28125 6.0625 38.453125 11.015625 
Q 42.625 15.96875 42.625 26.375 
Q 42.625 36.28125 38.546875 41.203125 
Q 34.46875 46.140625 28.8125 46.140625 
Q 23.1875 46.140625 18.859375 40.890625 
Q 14.546875 35.640625 14.546875 25.640625 
z
" id="ArialMT-70"/>
      <path d="M 3.328125 25.921875 
Q 3.328125 40.328125 11.328125 47.265625 
Q 18.015625 53.03125 27.640625 53.03125 
Q 38.328125 53.03125 45.109375 46.015625 
Q 51.90625 39.015625 51.90625 26.65625 
Q 51.90625 16.65625 48.90625 10.90625 
Q 45.90625 5.171875 40.15625 2 
Q 34.421875 -1.171875 27.640625 -1.171875 
Q 16.75 -1.171875 10.03125 5.8125 
Q 3.328125 12.796875 3.328125 25.921875 
z
M 12.359375 25.921875 
Q 12.359375 15.96875 16.703125 11.015625 
Q 21.046875 6.0625 27.640625 6.0625 
Q 34.1875 6.0625 38.53125 11.03125 
Q 42.875 16.015625 42.875 26.21875 
Q 42.875 35.84375 38.5 40.796875 
Q 34.125 45.75 27.640625 45.75 
Q 21.046875 45.75 16.703125 40.8125 
Q 12.359375 35.890625 12.359375 25.921875 
z
" id="ArialMT-6f"/>
      <path d="M 40.4375 19 
L 49.078125 17.875 
Q 47.65625 8.9375 41.8125 3.875 
Q 35.984375 -1.171875 27.484375 -1.171875 
Q 16.84375 -1.171875 10.375 5.78125 
Q 3.90625 12.75 3.90625 25.734375 
Q 3.90625 34.125 6.6875 40.421875 
Q 9.46875 46.734375 15.15625 49.875 
Q 20.84375 53.03125 27.546875 53.03125 
Q 35.984375 53.03125 41.359375 48.75 
Q 46.734375 44.484375 48.25 36.625 
L 39.703125 35.296875 
Q 38.484375 40.53125 35.375 43.15625 
Q 32.28125 45.796875 27.875 45.796875 
Q 21.234375 45.796875 17.078125 41.03125 
Q 12.9375 36.28125 12.9375 25.984375 
Q 12.9375 15.53125 16.9375 10.796875 
Q 20.953125 6.0625 27.390625 6.0625 
Q 32.5625 6.0625 36.03125 9.234375 
Q 39.5 12.40625 40.4375 19 
z
" id="ArialMT-63"/>
      <path d="M 6.59375 0 
L 6.59375 71.578125 
L 15.375 71.578125 
L 15.375 45.90625 
Q 21.53125 53.03125 30.90625 53.03125 
Q 36.671875 53.03125 40.921875 50.75 
Q 45.171875 48.484375 47 44.484375 
Q 48.828125 40.484375 48.828125 32.859375 
L 48.828125 0 
L 40.046875 0 
L 40.046875 32.859375 
Q 40.046875 39.453125 37.1875 42.453125 
Q 34.328125 45.453125 29.109375 45.453125 
Q 25.203125 45.453125 21.75 43.421875 
Q 18.3125 41.40625 16.84375 37.9375 
Q 15.375 34.46875 15.375 28.375 
L 15.375 0 
z
" id="ArialMT-68"/>
      <path d="M 3.078125 15.484375 
L 11.765625 16.84375 
Q 12.5 11.625 15.84375 8.84375 
Q 19.1875 6.0625 25.203125 6.0625 
Q 31.25 6.0625 34.171875 8.515625 
Q 37.109375 10.984375 37.109375 14.3125 
Q 37.109375 17.28125 34.515625 19 
Q 32.71875 20.171875 25.53125 21.96875 
Q 15.875 24.421875 12.140625 26.203125 
Q 8.40625 27.984375 6.46875 31.125 
Q 4.546875 34.28125 4.546875 38.09375 
Q 4.546875 41.546875 6.125 44.5 
Q 7.71875 47.46875 10.453125 49.421875 
Q 12.5 50.921875 16.03125 51.96875 
Q 19.578125 53.03125 23.640625 53.03125 
Q 29.734375 53.03125 34.34375 51.265625 
Q 38.96875 49.515625 41.15625 46.5 
Q 43.359375 43.5 44.1875 38.484375 
L 35.59375 37.3125 
Q 35.015625 41.3125 32.203125 43.546875 
Q 29.390625 45.796875 24.265625 45.796875 
Q 18.21875 45.796875 15.625 43.796875 
Q 13.03125 41.796875 13.03125 39.109375 
Q 13.03125 37.40625 14.109375 36.03125 
Q 15.1875 34.625 17.484375 33.6875 
Q 18.796875 33.203125 25.25 31.453125 
Q 34.578125 28.953125 38.25 27.359375 
Q 41.9375 25.78125 44.03125 22.75 
Q 46.140625 19.734375 46.140625 15.234375 
Q 46.140625 10.84375 43.578125 6.953125 
Q 41.015625 3.078125 36.171875 0.953125 
Q 31.34375 -1.171875 25.25 -1.171875 
Q 15.140625 -1.171875 9.84375 3.03125 
Q 4.546875 7.234375 3.078125 15.484375 
z
" id="ArialMT-73"/>
      <path id="ArialMT-20"/>
      <path d="M 3.171875 21.484375 
L 3.171875 30.328125 
L 30.171875 30.328125 
L 30.171875 21.484375 
z
" id="ArialMT-2d"/>
      <path d="M 7.328125 0 
L 7.328125 71.578125 
L 34.1875 71.578125 
Q 42.390625 71.578125 47.34375 69.40625 
Q 52.296875 67.234375 55.09375 62.71875 
Q 57.90625 58.203125 57.90625 53.265625 
Q 57.90625 48.6875 55.421875 44.625 
Q 52.9375 40.578125 47.90625 38.09375 
Q 54.390625 36.1875 57.875 31.59375 
Q 61.375 27 61.375 20.75 
Q 61.375 15.71875 59.25 11.390625 
Q 57.125 7.078125 54 4.734375 
Q 50.875 2.390625 46.15625 1.1875 
Q 41.453125 0 34.625 0 
z
M 16.796875 41.5 
L 32.28125 41.5 
Q 38.578125 41.5 41.3125 42.328125 
Q 44.921875 43.40625 46.75 45.890625 
Q 48.578125 48.390625 48.578125 52.15625 
Q 48.578125 55.71875 46.875 58.421875 
Q 45.171875 61.140625 41.984375 62.140625 
Q 38.8125 63.140625 31.109375 63.140625 
L 16.796875 63.140625 
z
M 16.796875 8.453125 
L 34.625 8.453125 
Q 39.203125 8.453125 41.0625 8.796875 
Q 44.34375 9.375 46.53125 10.734375 
Q 48.734375 12.109375 50.140625 14.71875 
Q 51.5625 17.328125 51.5625 20.75 
Q 51.5625 24.75 49.515625 27.703125 
Q 47.46875 30.671875 43.828125 31.859375 
Q 40.1875 33.0625 33.34375 33.0625 
L 16.796875 33.0625 
z
" id="ArialMT-42"/>
      <path d="M 6.640625 61.46875 
L 6.640625 71.578125 
L 15.4375 71.578125 
L 15.4375 61.46875 
z
M 6.640625 0 
L 6.640625 51.859375 
L 15.4375 51.859375 
L 15.4375 0 
z
" id="ArialMT-69"/>
      <path d="M 6.640625 0 
L 6.640625 71.578125 
L 15.4375 71.578125 
L 15.4375 30.765625 
L 36.234375 51.859375 
L 47.609375 51.859375 
L 27.78125 32.625 
L 49.609375 0 
L 38.765625 0 
L 21.625 26.515625 
L 15.4375 20.5625 
L 15.4375 0 
z
" id="ArialMT-6b"/>
      <path d="M 42.09375 16.703125 
L 51.171875 15.578125 
Q 49.03125 7.625 43.21875 3.21875 
Q 37.40625 -1.171875 28.375 -1.171875 
Q 17 -1.171875 10.328125 5.828125 
Q 3.65625 12.84375 3.65625 25.484375 
Q 3.65625 38.578125 10.390625 45.796875 
Q 17.140625 53.03125 27.875 53.03125 
Q 38.28125 53.03125 44.875 45.953125 
Q 51.46875 38.875 51.46875 26.03125 
Q 51.46875 25.25 51.421875 23.6875 
L 12.75 23.6875 
Q 13.234375 15.140625 17.578125 10.59375 
Q 21.921875 6.0625 28.421875 6.0625 
Q 33.25 6.0625 36.671875 8.59375 
Q 40.09375 11.140625 42.09375 16.703125 
z
M 13.234375 30.90625 
L 42.1875 30.90625 
Q 41.609375 37.453125 38.875 40.71875 
Q 34.671875 45.796875 27.984375 45.796875 
Q 21.921875 45.796875 17.796875 41.75 
Q 13.671875 37.703125 13.234375 30.90625 
z
" id="ArialMT-65"/>
      <path d="M 7.625 0 
L 7.625 71.578125 
L 17.328125 71.578125 
L 54.9375 15.375 
L 54.9375 71.578125 
L 64.015625 71.578125 
L 64.015625 0 
L 54.296875 0 
L 16.703125 56.25 
L 16.703125 0 
z
" id="ArialMT-4e"/>
      <path d="M 27.875 0 
L 27.875 30.328125 
L 0.296875 71.578125 
L 11.8125 71.578125 
L 25.921875 50 
Q 29.828125 43.953125 33.203125 37.890625 
Q 36.421875 43.5 41.015625 50.53125 
L 54.890625 71.578125 
L 65.921875 71.578125 
L 37.359375 30.328125 
L 37.359375 0 
z
" id="ArialMT-59"/>
      <path d="M 58.796875 25.09375 
L 68.265625 22.703125 
Q 65.28125 11.03125 57.546875 4.90625 
Q 49.8125 -1.21875 38.625 -1.21875 
Q 27.046875 -1.21875 19.796875 3.484375 
Q 12.546875 8.203125 8.765625 17.140625 
Q 4.984375 26.078125 4.984375 36.328125 
Q 4.984375 47.515625 9.25 55.828125 
Q 13.53125 64.15625 21.40625 68.46875 
Q 29.296875 72.796875 38.765625 72.796875 
Q 49.515625 72.796875 56.828125 67.328125 
Q 64.15625 61.859375 67.046875 51.953125 
L 57.71875 49.75 
Q 55.21875 57.5625 50.484375 61.125 
Q 45.75 64.703125 38.578125 64.703125 
Q 30.328125 64.703125 24.78125 60.734375 
Q 19.234375 56.78125 16.984375 50.109375 
Q 14.75 43.453125 14.75 36.375 
Q 14.75 27.25 17.40625 20.4375 
Q 20.0625 13.625 25.671875 10.25 
Q 31.296875 6.890625 37.84375 6.890625 
Q 45.796875 6.890625 51.3125 11.46875 
Q 56.84375 16.0625 58.796875 25.09375 
z
" id="ArialMT-43"/>
     </defs>
     <g style="fill:#262626;" transform="translate(186.581562 275.352969)scale(0.11 -0.11)">
      <use xlink:href="#ArialMT-45"/>
      <use x="66.699219" xlink:href="#ArialMT-70"/>
      <use x="122.314453" xlink:href="#ArialMT-6f"/>
      <use x="177.929688" xlink:href="#ArialMT-63"/>
      <use x="227.929688" xlink:href="#ArialMT-68"/>
      <use x="283.544922" xlink:href="#ArialMT-73"/>
      <use x="333.544922" xlink:href="#ArialMT-20"/>
      <use x="361.328125" xlink:href="#ArialMT-2d"/>
      <use x="394.628906" xlink:href="#ArialMT-20"/>
      <use x="422.412109" xlink:href="#ArialMT-42"/>
      <use x="489.111328" xlink:href="#ArialMT-69"/>
      <use x="511.328125" xlink:href="#ArialMT-6b"/>
      <use x="561.328125" xlink:href="#ArialMT-65"/>
      <use x="616.943359" xlink:href="#ArialMT-4e"/>
      <use x="689.160156" xlink:href="#ArialMT-59"/>
      <use x="755.859375" xlink:href="#ArialMT-43"/>
     </g>
    </g>
   </g>
   <g id="matplotlib.axis_2">
    <g id="ytick_1">
     <g id="line2d_19">
      <path clip-path="url(#p997ec2df37)" d="M 43.05 216.341282 
L 421.2 216.341282 
" style="fill:none;stroke:#ffffff;stroke-linecap:round;"/>
     </g>
     <g id="line2d_20"/>
     <g id="text_11">
      <!-- 6 -->
      <defs>
       <path d="M 49.75 54.046875 
L 41.015625 53.375 
Q 39.84375 58.546875 37.703125 60.890625 
Q 34.125 64.65625 28.90625 64.65625 
Q 24.703125 64.65625 21.53125 62.3125 
Q 17.390625 59.28125 14.984375 53.46875 
Q 12.59375 47.65625 12.5 36.921875 
Q 15.671875 41.75 20.265625 44.09375 
Q 24.859375 46.4375 29.890625 46.4375 
Q 38.671875 46.4375 44.84375 39.96875 
Q 51.03125 33.5 51.03125 23.25 
Q 51.03125 16.5 48.125 10.71875 
Q 45.21875 4.9375 40.140625 1.859375 
Q 35.0625 -1.21875 28.609375 -1.21875 
Q 17.625 -1.21875 10.6875 6.859375 
Q 3.765625 14.9375 3.765625 33.5 
Q 3.765625 54.25 11.421875 63.671875 
Q 18.109375 71.875 29.4375 71.875 
Q 37.890625 71.875 43.28125 67.140625 
Q 48.6875 62.40625 49.75 54.046875 
z
M 13.875 23.1875 
Q 13.875 18.65625 15.796875 14.5 
Q 17.71875 10.359375 21.1875 8.171875 
Q 24.65625 6 28.46875 6 
Q 34.03125 6 38.03125 10.484375 
Q 42.046875 14.984375 42.046875 22.703125 
Q 42.046875 30.125 38.078125 34.390625 
Q 34.125 38.671875 28.125 38.671875 
Q 22.171875 38.671875 18.015625 34.390625 
Q 13.875 30.125 13.875 23.1875 
z
" id="ArialMT-36"/>
      </defs>
      <g style="fill:#262626;" transform="translate(30.489063 219.920188)scale(0.1 -0.1)">
       <use xlink:href="#ArialMT-36"/>
      </g>
     </g>
    </g>
    <g id="ytick_2">
     <g id="line2d_21">
      <path clip-path="url(#p997ec2df37)" d="M 43.05 178.304736 
L 421.2 178.304736 
" style="fill:none;stroke:#ffffff;stroke-linecap:round;"/>
     </g>
     <g id="line2d_22"/>
     <g id="text_12">
      <!-- 8 -->
      <defs>
       <path d="M 17.671875 38.8125 
Q 12.203125 40.828125 9.5625 44.53125 
Q 6.9375 48.25 6.9375 53.421875 
Q 6.9375 61.234375 12.546875 66.546875 
Q 18.171875 71.875 27.484375 71.875 
Q 36.859375 71.875 42.578125 66.421875 
Q 48.296875 60.984375 48.296875 53.171875 
Q 48.296875 48.1875 45.671875 44.5 
Q 43.0625 40.828125 37.75 38.8125 
Q 44.34375 36.671875 47.78125 31.875 
Q 51.21875 27.09375 51.21875 20.453125 
Q 51.21875 11.28125 44.71875 5.03125 
Q 38.234375 -1.21875 27.640625 -1.21875 
Q 17.046875 -1.21875 10.546875 5.046875 
Q 4.046875 11.328125 4.046875 20.703125 
Q 4.046875 27.6875 7.59375 32.390625 
Q 11.140625 37.109375 17.671875 38.8125 
z
M 15.921875 53.71875 
Q 15.921875 48.640625 19.1875 45.40625 
Q 22.46875 42.1875 27.6875 42.1875 
Q 32.765625 42.1875 36.015625 45.375 
Q 39.265625 48.578125 39.265625 53.21875 
Q 39.265625 58.0625 35.90625 61.359375 
Q 32.5625 64.65625 27.59375 64.65625 
Q 22.5625 64.65625 19.234375 61.421875 
Q 15.921875 58.203125 15.921875 53.71875 
z
M 13.09375 20.65625 
Q 13.09375 16.890625 14.875 13.375 
Q 16.65625 9.859375 20.171875 7.921875 
Q 23.6875 6 27.734375 6 
Q 34.03125 6 38.125 10.046875 
Q 42.234375 14.109375 42.234375 20.359375 
Q 42.234375 26.703125 38.015625 30.859375 
Q 33.796875 35.015625 27.4375 35.015625 
Q 21.234375 35.015625 17.15625 30.90625 
Q 13.09375 26.8125 13.09375 20.65625 
z
" id="ArialMT-38"/>
      </defs>
      <g style="fill:#262626;" transform="translate(30.489063 181.883642)scale(0.1 -0.1)">
       <use xlink:href="#ArialMT-38"/>
      </g>
     </g>
    </g>
    <g id="ytick_3">
     <g id="line2d_23">
      <path clip-path="url(#p997ec2df37)" d="M 43.05 140.26819 
L 421.2 140.26819 
" style="fill:none;stroke:#ffffff;stroke-linecap:round;"/>
     </g>
     <g id="line2d_24"/>
     <g id="text_13">
      <!-- 10 -->
      <g style="fill:#262626;" transform="translate(24.928125 143.847096)scale(0.1 -0.1)">
       <use xlink:href="#ArialMT-31"/>
       <use x="55.615234" xlink:href="#ArialMT-30"/>
      </g>
     </g>
    </g>
    <g id="ytick_4">
     <g id="line2d_25">
      <path clip-path="url(#p997ec2df37)" d="M 43.05 102.231644 
L 421.2 102.231644 
" style="fill:none;stroke:#ffffff;stroke-linecap:round;"/>
     </g>
     <g id="line2d_26"/>
     <g id="text_14">
      <!-- 12 -->
      <g style="fill:#262626;" transform="translate(24.928125 105.81055)scale(0.1 -0.1)">
       <use xlink:href="#ArialMT-31"/>
       <use x="55.615234" xlink:href="#ArialMT-32"/>
      </g>
     </g>
    </g>
    <g id="ytick_5">
     <g id="line2d_27">
      <path clip-path="url(#p997ec2df37)" d="M 43.05 64.195098 
L 421.2 64.195098 
" style="fill:none;stroke:#ffffff;stroke-linecap:round;"/>
     </g>
     <g id="line2d_28"/>
     <g id="text_15">
      <!-- 14 -->
      <defs>
       <path d="M 32.328125 0 
L 32.328125 17.140625 
L 1.265625 17.140625 
L 1.265625 25.203125 
L 33.9375 71.578125 
L 41.109375 71.578125 
L 41.109375 25.203125 
L 50.78125 25.203125 
L 50.78125 17.140625 
L 41.109375 17.140625 
L 41.109375 0 
z
M 32.328125 25.203125 
L 32.328125 57.46875 
L 9.90625 25.203125 
z
" id="ArialMT-34"/>
      </defs>
      <g style="fill:#262626;" transform="translate(24.928125 67.774005)scale(0.1 -0.1)">
       <use xlink:href="#ArialMT-31"/>
       <use x="55.615234" xlink:href="#ArialMT-34"/>
      </g>
     </g>
    </g>
    <g id="ytick_6">
     <g id="line2d_29">
      <path clip-path="url(#p997ec2df37)" d="M 43.05 26.158552 
L 421.2 26.158552 
" style="fill:none;stroke:#ffffff;stroke-linecap:round;"/>
     </g>
     <g id="line2d_30"/>
     <g id="text_16">
      <!-- 16 -->
      <g style="fill:#262626;" transform="translate(24.928125 29.737459)scale(0.1 -0.1)">
       <use xlink:href="#ArialMT-31"/>
       <use x="55.615234" xlink:href="#ArialMT-36"/>
      </g>
     </g>
    </g>
    <g id="text_17">
     <!-- RMSE -->
     <defs>
      <path d="M 7.859375 0 
L 7.859375 71.578125 
L 39.59375 71.578125 
Q 49.171875 71.578125 54.140625 69.640625 
Q 59.125 67.71875 62.109375 62.828125 
Q 65.09375 57.953125 65.09375 52.046875 
Q 65.09375 44.4375 60.15625 39.203125 
Q 55.21875 33.984375 44.921875 32.5625 
Q 48.6875 30.765625 50.640625 29 
Q 54.78125 25.203125 58.5 19.484375 
L 70.953125 0 
L 59.03125 0 
L 49.5625 14.890625 
Q 45.40625 21.34375 42.71875 24.75 
Q 40.046875 28.171875 37.921875 29.53125 
Q 35.796875 30.90625 33.59375 31.453125 
Q 31.984375 31.78125 28.328125 31.78125 
L 17.328125 31.78125 
L 17.328125 0 
z
M 17.328125 39.984375 
L 37.703125 39.984375 
Q 44.1875 39.984375 47.84375 41.328125 
Q 51.515625 42.671875 53.421875 45.625 
Q 55.328125 48.578125 55.328125 52.046875 
Q 55.328125 57.125 51.640625 60.390625 
Q 47.953125 63.671875 39.984375 63.671875 
L 17.328125 63.671875 
z
" id="ArialMT-52"/>
      <path d="M 7.421875 0 
L 7.421875 71.578125 
L 21.6875 71.578125 
L 38.625 20.90625 
Q 40.96875 13.8125 42.046875 10.296875 
Q 43.265625 14.203125 45.84375 21.78125 
L 62.984375 71.578125 
L 75.734375 71.578125 
L 75.734375 0 
L 66.609375 0 
L 66.609375 59.90625 
L 45.796875 0 
L 37.25 0 
L 16.546875 60.9375 
L 16.546875 0 
z
" id="ArialMT-4d"/>
      <path d="M 4.5 23 
L 13.421875 23.78125 
Q 14.0625 18.40625 16.375 14.96875 
Q 18.703125 11.53125 23.578125 9.40625 
Q 28.46875 7.28125 34.578125 7.28125 
Q 39.984375 7.28125 44.140625 8.890625 
Q 48.296875 10.5 50.3125 13.296875 
Q 52.34375 16.109375 52.34375 19.4375 
Q 52.34375 22.796875 50.390625 25.3125 
Q 48.4375 27.828125 43.953125 29.546875 
Q 41.0625 30.671875 31.203125 33.03125 
Q 21.34375 35.40625 17.390625 37.5 
Q 12.25 40.1875 9.734375 44.15625 
Q 7.234375 48.140625 7.234375 53.078125 
Q 7.234375 58.5 10.296875 63.203125 
Q 13.375 67.921875 19.28125 70.359375 
Q 25.203125 72.796875 32.421875 72.796875 
Q 40.375 72.796875 46.453125 70.234375 
Q 52.546875 67.671875 55.8125 62.6875 
Q 59.078125 57.71875 59.328125 51.421875 
L 50.25 50.734375 
Q 49.515625 57.515625 45.28125 60.984375 
Q 41.0625 64.453125 32.8125 64.453125 
Q 24.21875 64.453125 20.28125 61.296875 
Q 16.359375 58.15625 16.359375 53.71875 
Q 16.359375 49.859375 19.140625 47.359375 
Q 21.875 44.875 33.421875 42.265625 
Q 44.96875 39.65625 49.265625 37.703125 
Q 55.515625 34.8125 58.484375 30.390625 
Q 61.46875 25.984375 61.46875 20.21875 
Q 61.46875 14.5 58.203125 9.4375 
Q 54.9375 4.390625 48.796875 1.578125 
Q 42.671875 -1.21875 35.015625 -1.21875 
Q 25.296875 -1.21875 18.71875 1.609375 
Q 12.15625 4.4375 8.421875 10.125 
Q 4.6875 15.828125 4.5 23 
z
" id="ArialMT-53"/>
     </defs>
     <g style="fill:#262626;" transform="translate(18.741875 144.890703)rotate(-90)scale(0.11 -0.11)">
      <use xlink:href="#ArialMT-52"/>
      <use x="72.216797" xlink:href="#ArialMT-4d"/>
      <use x="155.517578" xlink:href="#ArialMT-53"/>
      <use x="222.216797" xlink:href="#ArialMT-45"/>
     </g>
    </g>
   </g>
   <g id="line2d_31">
    <path clip-path="url(#p997ec2df37)" d="M 60.238636 76.19475 
L 61.966138 159.361297 
L 63.693639 166.229434 
L 65.42114 166.623012 
L 67.148641 168.750148 
L 68.876142 177.301656 
L 70.603643 179.348017 
L 72.331144 179.653231 
L 74.058646 178.834733 
L 75.786147 182.224438 
L 77.513648 182.348778 
L 79.241149 177.010408 
L 80.96865 183.755974 
L 82.696151 179.309149 
L 86.151153 185.246057 
L 87.878655 184.031061 
L 89.606156 188.997835 
L 91.333657 187.056253 
L 93.061158 191.334057 
L 94.788659 190.761936 
L 96.51616 193.467585 
L 98.243661 194.731098 
L 99.971163 194.613995 
L 101.698664 193.345186 
L 103.426165 196.867955 
L 105.153666 197.499593 
L 106.881167 200.112009 
L 108.608668 198.946473 
L 110.336169 201.921425 
L 112.063671 199.174676 
L 113.791172 199.939805 
L 115.518673 198.180637 
L 117.246174 204.231229 
L 118.973675 204.057656 
L 120.701176 205.880575 
L 122.428677 205.759391 
L 124.156179 207.383246 
L 125.88368 206.678596 
L 127.611181 204.685023 
L 129.338682 203.552751 
L 131.066183 201.304414 
L 132.793684 207.869333 
L 134.521185 209.377789 
L 136.248687 210.500175 
L 137.976188 208.659581 
L 139.703689 209.93238 
L 141.43119 211.024668 
L 143.158691 210.994723 
L 144.886192 213.667898 
L 146.613693 213.043424 
L 148.341195 213.653597 
L 150.068696 200.578172 
L 151.796197 210.169289 
L 153.523698 211.387494 
L 155.251199 205.502632 
L 156.9787 211.763198 
L 158.706201 213.848654 
L 160.433703 190.898173 
L 162.161204 218.367103 
L 163.888705 220.154446 
L 165.616206 218.032743 
L 167.343707 219.917429 
L 169.071208 215.112466 
L 170.798709 219.870961 
L 172.526211 220.510253 
L 174.253712 213.171355 
L 175.981213 219.751019 
L 177.708714 222.612704 
L 179.436215 220.146638 
L 181.163716 222.770598 
L 182.891217 221.587252 
L 184.618719 224.295277 
L 186.34622 222.791882 
L 188.073721 222.749041 
L 189.801222 224.805052 
L 191.528723 217.914343 
L 193.256224 222.180584 
L 194.983725 225.27418 
L 196.711227 221.810448 
L 198.438728 219.560116 
L 200.166229 225.392335 
L 201.89373 222.840235 
L 203.621231 221.747131 
L 205.348732 223.196768 
L 207.076233 223.660519 
L 208.803735 226.244949 
L 210.531236 226.712681 
L 212.258737 226.982209 
L 213.986238 220.515323 
L 215.713739 225.779964 
L 217.44124 222.405504 
L 219.168741 226.267221 
L 220.896243 221.164826 
L 222.623744 216.530417 
L 224.351245 228.616801 
L 226.078746 227.679223 
L 227.806247 229.113725 
L 229.533748 227.093726 
L 231.261249 223.909761 
L 232.988751 228.184282 
L 234.716252 225.802337 
L 236.443753 227.295449 
L 238.171254 227.326282 
L 239.898755 228.067941 
L 241.626256 229.118513 
L 243.353757 227.733671 
L 245.081259 229.12536 
L 246.80876 229.511565 
L 248.536261 226.009355 
L 250.263762 228.506953 
L 251.991263 229.32525 
L 253.718764 228.211234 
L 255.446265 229.516208 
L 257.173767 224.228732 
L 258.901268 226.184824 
L 260.628769 230.092002 
L 262.35627 228.157013 
L 264.083771 227.078863 
L 265.811272 228.319123 
L 267.538773 228.219722 
L 269.266275 229.923607 
L 272.721277 228.896169 
L 274.448778 231.481913 
L 277.90378 228.483066 
L 279.631281 227.558094 
L 281.358783 230.795201 
L 283.086284 222.982858 
L 284.813785 229.577494 
L 286.541286 229.276216 
L 288.268787 230.277093 
L 289.996288 231.691371 
L 291.723789 231.088789 
L 293.451291 228.41672 
L 295.178792 228.817553 
L 296.906293 230.033954 
L 298.633794 230.269693 
L 300.361295 231.369816 
L 302.088796 224.418121 
L 303.816297 229.790489 
L 305.543799 226.894706 
L 307.2713 224.375172 
L 308.998801 229.775199 
L 310.726302 231.455923 
L 312.453803 231.823755 
L 314.181304 229.231535 
L 315.908805 230.173257 
L 317.636307 225.819359 
L 319.363808 229.796746 
L 321.091309 231.662705 
L 322.81881 229.265116 
L 324.546311 228.417872 
L 326.273812 229.507584 
L 328.001313 231.247036 
L 329.728815 228.330432 
L 331.456316 228.850925 
L 333.183817 228.215387 
L 334.911318 230.483966 
L 336.638819 231.601238 
L 338.36632 228.047337 
L 340.093821 231.61358 
L 341.821323 228.996957 
L 343.548824 228.902607 
L 345.276325 231.422115 
L 347.003826 229.854903 
L 348.731327 227.20109 
L 350.458828 231.099861 
L 352.186329 230.764123 
L 353.913831 231.0286 
L 355.641332 228.506626 
L 357.368833 221.643042 
L 359.096334 229.336432 
L 360.823835 224.115918 
L 362.551336 228.32967 
L 364.278837 227.521203 
L 366.006339 229.54365 
L 367.73384 230.849694 
L 369.461341 229.920823 
L 371.188842 230.506774 
L 372.916343 230.889306 
L 374.643844 229.313053 
L 376.371345 229.922727 
L 378.098847 232.177395 
L 379.826348 230.485734 
L 381.553849 229.379172 
L 383.28135 227.979449 
L 385.008851 229.617269 
L 386.736352 228.707179 
L 388.463853 231.369997 
L 390.191354 231.973886 
L 391.918856 229.318939 
L 393.646357 228.206627 
L 397.101359 231.44485 
L 398.82886 231.183148 
L 400.556361 232.143569 
L 402.283862 231.427039 
L 404.011364 229.790326 
L 404.011364 229.790326 
" style="fill:none;stroke:#4c72b0;stroke-linecap:round;"/>
   </g>
   <g id="line2d_32">
    <path clip-path="url(#p997ec2df37)" d="M 60.238636 70.493073 
L 61.966138 161.455586 
L 65.42114 170.284177 
L 67.148641 175.458731 
L 68.876142 176.54361 
L 70.603643 176.686278 
L 72.331144 156.76214 
L 74.058646 183.157191 
L 75.786147 186.954947 
L 77.513648 185.829414 
L 79.241149 190.191483 
L 80.96865 188.51602 
L 82.696151 187.767541 
L 86.151153 193.958053 
L 87.878655 195.73611 
L 89.606156 196.13444 
L 91.333657 197.644247 
L 93.061158 194.293854 
L 94.788659 197.409279 
L 96.51616 201.895371 
L 98.243661 203.303736 
L 99.971163 203.100608 
L 101.698664 204.447507 
L 103.426165 203.868222 
L 105.153666 209.868891 
L 106.881167 210.358415 
L 108.608668 211.364152 
L 110.336169 212.70073 
L 112.063671 208.960859 
L 113.791172 213.871679 
L 115.518673 215.015432 
L 117.246174 215.006545 
L 118.973675 216.459165 
L 120.701176 218.177487 
L 122.428677 218.436931 
L 124.156179 213.260971 
L 125.88368 219.973173 
L 127.611181 219.696644 
L 129.338682 216.398877 
L 131.066183 220.257919 
L 132.793684 221.679761 
L 134.521185 220.932071 
L 136.248687 223.405727 
L 137.976188 223.490972 
L 139.703689 217.447218 
L 141.43119 224.043578 
L 143.158691 223.374858 
L 144.886192 223.194909 
L 146.613693 225.122245 
L 148.341195 224.267808 
L 150.068696 224.850794 
L 151.796197 225.314871 
L 153.523698 226.573387 
L 155.251199 228.780063 
L 156.9787 226.330965 
L 158.706201 227.510674 
L 160.433703 227.941116 
L 162.161204 225.457376 
L 163.888705 227.97019 
L 165.616206 226.912853 
L 167.343707 218.31212 
L 169.071208 229.202543 
L 170.798709 230.250377 
L 172.526211 229.567074 
L 174.253712 222.157786 
L 175.981213 227.093345 
L 177.708714 218.358741 
L 179.436215 229.066795 
L 181.163716 230.826279 
L 182.891217 230.873173 
L 184.618719 231.218161 
L 186.34622 228.336318 
L 188.073721 231.492514 
L 189.801222 221.710784 
L 191.528723 230.6663 
L 193.256224 229.567129 
L 194.983725 231.840913 
L 196.711227 232.734797 
L 198.438728 227.155774 
L 200.166229 224.332912 
L 201.89373 231.605754 
L 203.621231 228.850354 
L 205.348732 228.159788 
L 207.076233 231.580498 
L 208.803735 227.934324 
L 210.531236 231.802289 
L 212.258737 232.859065 
L 213.986238 231.819592 
L 215.713739 231.95534 
L 217.44124 232.722373 
L 219.168741 224.428069 
L 220.896243 233.093334 
L 222.623744 225.860131 
L 224.351245 227.710329 
L 226.078746 231.296369 
L 227.806247 232.658875 
L 229.533748 229.104239 
L 231.261249 232.972268 
L 232.988751 227.415463 
L 234.716252 231.867774 
L 236.443753 233.327949 
L 238.171254 233.420022 
L 239.898755 233.673916 
L 241.626256 232.694206 
L 243.353757 230.195412 
L 245.081259 231.955939 
L 246.80876 230.617447 
L 248.536261 226.416799 
L 250.263762 232.88443 
L 251.991263 233.167271 
L 253.718764 229.220571 
L 255.446265 230.177057 
L 257.173767 232.504636 
L 258.901268 231.362071 
L 260.628769 230.354022 
L 262.35627 231.5614 
L 264.083771 231.992277 
L 265.811272 233.055527 
L 267.538773 229.305218 
L 269.266275 233.045162 
L 270.993776 234.342156 
L 272.721277 232.699285 
L 274.448778 234.613498 
L 276.176279 226.843133 
L 277.90378 234.426122 
L 279.631281 230.901585 
L 281.358783 233.895562 
L 283.086284 234.197103 
L 284.813785 233.582287 
L 286.541286 233.750592 
L 288.268787 234.731453 
L 289.996288 231.480553 
L 291.723789 232.705859 
L 293.451291 230.424866 
L 295.178792 229.361625 
L 296.906293 234.493212 
L 298.633794 232.672333 
L 300.361295 232.82532 
L 302.088796 231.237677 
L 303.816297 232.014404 
L 305.543799 228.961427 
L 307.2713 234.427328 
L 308.998801 229.976504 
L 310.726302 235.383415 
L 312.453803 233.919839 
L 314.181304 234.176454 
L 315.908805 233.481163 
L 317.636307 229.920596 
L 319.363808 232.131417 
L 321.091309 233.577943 
L 322.81881 233.037118 
L 324.546311 234.319802 
L 326.273812 233.79871 
L 328.001313 232.716751 
L 329.728815 233.804668 
L 331.456316 228.998699 
L 333.183817 230.651264 
L 334.911318 234.532787 
L 336.638819 234.690064 
L 343.548824 233.81263 
L 345.276325 233.378533 
L 347.003826 232.245083 
L 348.731327 231.956438 
L 350.458828 233.260959 
L 352.186329 233.718081 
L 353.913831 234.461889 
L 355.641332 232.966038 
L 357.368833 233.50154 
L 359.096334 233.281372 
L 360.823835 233.581208 
L 362.551336 233.747209 
L 364.278837 225.306573 
L 366.006339 229.649916 
L 367.73384 233.657158 
L 369.461341 230.455754 
L 371.188842 224.417504 
L 372.916343 232.891086 
L 374.643844 232.044168 
L 376.371345 232.768805 
L 378.098847 232.282183 
L 379.826348 234.555912 
L 381.553849 234.259912 
L 383.28135 231.859277 
L 385.008851 234.345965 
L 386.736352 233.194567 
L 388.463853 232.29525 
L 390.191354 232.905142 
L 391.918856 233.950926 
L 393.646357 233.334859 
L 395.373858 233.321836 
L 397.101359 233.067842 
L 398.82886 233.310591 
L 400.556361 234.532143 
L 402.283862 231.042412 
L 404.011364 233.662717 
L 404.011364 233.662717 
" style="fill:none;stroke:#55a868;stroke-linecap:round;"/>
   </g>
   <g id="line2d_33">
    <path clip-path="url(#p997ec2df37)" d="M 60.238636 21.545455 
L 61.966138 50.49187 
L 63.693639 64.466413 
L 67.148641 118.923889 
L 68.876142 134.187282 
L 70.603643 143.900517 
L 72.331144 157.7736 
L 74.058646 163.683655 
L 75.786147 165.211464 
L 77.513648 166.184273 
L 79.241149 165.53641 
L 80.96865 167.394679 
L 84.423652 169.258045 
L 86.151153 169.879717 
L 87.878655 170.740147 
L 89.606156 171.318653 
L 91.333657 171.77007 
L 93.061158 173.816549 
L 94.788659 175.191207 
L 96.51616 172.053447 
L 98.243661 173.73368 
L 99.971163 173.792481 
L 101.698664 176.042696 
L 103.426165 179.558591 
L 105.153666 178.319681 
L 106.881167 184.006241 
L 108.608668 184.921373 
L 110.336169 185.018979 
L 113.791172 184.709875 
L 117.246174 188.215386 
L 120.701176 188.680824 
L 122.428677 187.643446 
L 124.156179 188.833394 
L 125.88368 190.290893 
L 127.611181 190.578613 
L 129.338682 191.709516 
L 131.066183 190.859378 
L 132.793684 192.011555 
L 134.521185 192.03935 
L 136.248687 192.652199 
L 137.976188 191.671573 
L 139.703689 190.23913 
L 141.43119 192.381836 
L 143.158691 189.950793 
L 144.886192 193.693476 
L 146.613693 196.55672 
L 148.341195 196.648177 
L 150.068696 195.84564 
L 151.796197 198.045225 
L 155.251199 199.030077 
L 156.9787 196.783073 
L 158.706201 199.372318 
L 160.433703 201.636933 
L 162.161204 200.642595 
L 163.888705 201.734484 
L 165.616206 203.507263 
L 167.343707 204.786129 
L 169.071208 200.335604 
L 170.798709 205.679578 
L 172.526211 206.764992 
L 175.981213 206.463062 
L 177.708714 207.283119 
L 179.436215 209.017238 
L 181.163716 209.238413 
L 182.891217 209.225708 
L 184.618719 209.954263 
L 186.34622 211.190043 
L 188.073721 210.313117 
L 189.801222 211.543085 
L 191.528723 211.562319 
L 193.256224 212.435464 
L 194.983725 212.02403 
L 196.711227 213.234146 
L 198.438728 214.03136 
L 200.166229 213.723308 
L 201.89373 213.683288 
L 203.621231 214.992134 
L 205.348732 214.887165 
L 207.076233 214.509203 
L 208.803735 214.843554 
L 210.531236 214.897757 
L 212.258737 216.122692 
L 213.986238 215.094565 
L 215.713739 216.641762 
L 217.44124 216.897569 
L 219.168741 216.699239 
L 220.896243 214.901158 
L 222.623744 217.934666 
L 224.351245 215.248967 
L 226.078746 218.677313 
L 227.806247 218.890761 
L 229.533748 218.971 
L 231.261249 219.262429 
L 232.988751 219.737716 
L 234.716252 219.478489 
L 236.443753 218.099125 
L 238.171254 219.633136 
L 239.898755 217.372139 
L 241.626256 216.830434 
L 243.353757 220.303135 
L 245.081259 220.469064 
L 246.80876 221.363837 
L 248.536261 221.398198 
L 250.263762 221.756399 
L 251.991263 221.499567 
L 253.718764 222.081491 
L 255.446265 221.648546 
L 257.173767 222.449632 
L 258.901268 222.237744 
L 260.628769 219.981761 
L 262.35627 217.346239 
L 264.083771 219.32046 
L 265.811272 222.266201 
L 267.538773 222.420531 
L 269.266275 222.46026 
L 270.993776 223.364393 
L 272.721277 223.834818 
L 274.448778 223.197684 
L 276.176279 222.825961 
L 277.90378 218.468299 
L 279.631281 223.678203 
L 281.358783 221.403059 
L 283.086284 224.037765 
L 284.813785 221.844828 
L 286.541286 223.60092 
L 288.268787 223.559876 
L 289.996288 224.558013 
L 291.723789 224.383878 
L 295.178792 225.199455 
L 296.906293 225.166536 
L 298.633794 224.336304 
L 300.361295 225.288273 
L 302.088796 225.244408 
L 303.816297 224.705333 
L 305.543799 221.755438 
L 307.2713 224.355085 
L 310.726302 224.490452 
L 312.453803 225.764593 
L 314.181304 226.409726 
L 317.636307 225.2809 
L 319.363808 225.921408 
L 321.091309 224.558421 
L 322.81881 226.671564 
L 324.546311 225.86978 
L 328.001313 226.044959 
L 329.728815 223.572526 
L 331.456316 226.619029 
L 333.183817 227.133284 
L 334.911318 226.918303 
L 336.638819 227.359736 
L 338.36632 227.555101 
L 340.093821 228.129589 
L 341.821323 226.415983 
L 343.548824 227.825609 
L 345.276325 228.043029 
L 347.003826 227.589499 
L 348.731327 227.941143 
L 352.186329 228.066064 
L 353.913831 227.948561 
L 355.641332 223.768771 
L 357.368833 227.594604 
L 359.096334 227.501297 
L 360.823835 227.615 
L 362.551336 226.569868 
L 364.278837 226.41319 
L 366.006339 222.828074 
L 367.73384 226.415675 
L 369.461341 228.279049 
L 371.188842 225.200289 
L 372.916343 228.564167 
L 374.643844 228.861073 
L 376.371345 226.653472 
L 378.098847 227.495983 
L 379.826348 225.411652 
L 381.553849 228.917163 
L 383.28135 222.636291 
L 385.008851 219.399982 
L 386.736352 226.601618 
L 388.463853 229.764072 
L 390.191354 229.49 
L 391.918856 230.140365 
L 393.646357 226.976941 
L 395.373858 228.832217 
L 397.101359 227.396074 
L 398.82886 230.130834 
L 400.556361 230.123761 
L 402.283862 229.567328 
L 404.011364 230.482216 
L 404.011364 230.482216 
" style="fill:none;stroke:#c44e52;stroke-linecap:round;"/>
   </g>
   <g id="line2d_34">
    <path clip-path="url(#p997ec2df37)" d="M 60.238636 79.373355 
L 61.966138 159.334962 
L 63.693639 160.885805 
L 65.42114 164.287934 
L 67.148641 165.929463 
L 68.876142 166.489849 
L 70.603643 168.647872 
L 72.331144 168.0334 
L 74.058646 174.999932 
L 75.786147 178.702676 
L 77.513648 180.873613 
L 79.241149 179.64438 
L 80.96865 184.897214 
L 82.696151 187.570362 
L 84.423652 187.67281 
L 86.151153 175.531752 
L 87.878655 188.200114 
L 89.606156 192.519098 
L 91.333657 192.541561 
L 93.061158 193.499072 
L 94.788659 195.387956 
L 96.51616 194.47656 
L 98.243661 197.50225 
L 99.971163 195.639719 
L 101.698664 200.616849 
L 103.426165 200.098106 
L 105.153666 201.941421 
L 106.881167 202.105944 
L 108.608668 199.579182 
L 110.336169 200.564505 
L 112.063671 197.34481 
L 113.791172 207.611095 
L 115.518673 209.392108 
L 117.246174 210.563075 
L 118.973675 210.586064 
L 120.701176 211.536211 
L 122.428677 213.180778 
L 124.156179 212.456639 
L 125.88368 215.772924 
L 127.611181 212.205393 
L 129.338682 215.988649 
L 131.066183 217.768329 
L 132.793684 213.604264 
L 134.521185 213.521758 
L 136.248687 217.60026 
L 137.976188 218.184787 
L 139.703689 218.644213 
L 141.43119 218.621913 
L 143.158691 220.181815 
L 144.886192 222.082824 
L 146.613693 220.572246 
L 148.341195 221.138935 
L 150.068696 222.627803 
L 151.796197 221.790225 
L 153.523698 220.824835 
L 155.251199 222.735085 
L 156.9787 222.454692 
L 158.706201 223.496151 
L 160.433703 223.879427 
L 162.161204 223.45322 
L 163.888705 223.410779 
L 165.616206 220.283121 
L 167.343707 224.933935 
L 169.071208 224.297309 
L 170.798709 221.912289 
L 172.526211 226.437902 
L 174.253712 225.193052 
L 175.981213 224.906085 
L 177.708714 226.714676 
L 179.436215 227.269993 
L 181.163716 224.723271 
L 182.891217 225.446203 
L 184.618719 227.341046 
L 186.34622 226.861751 
L 188.073721 226.992022 
L 189.801222 226.4092 
L 191.528723 227.694658 
L 193.256224 226.073697 
L 194.983725 228.032863 
L 196.711227 227.49854 
L 198.438728 228.040318 
L 200.166229 223.092307 
L 201.89373 225.145061 
L 203.621231 228.560621 
L 205.348732 228.549766 
L 207.076233 222.802265 
L 208.803735 226.764154 
L 210.531236 226.162343 
L 212.258737 229.748075 
L 213.986238 229.679407 
L 215.713739 228.971329 
L 217.44124 220.19735 
L 219.168741 229.527771 
L 220.896243 228.14205 
L 222.623744 227.820494 
L 224.351245 230.073693 
L 227.806247 225.888398 
L 229.533748 229.185857 
L 231.261249 227.564442 
L 232.988751 229.084034 
L 234.716252 227.810873 
L 236.443753 225.147192 
L 238.171254 229.841971 
L 239.898755 227.555274 
L 241.626256 228.532717 
L 243.353757 230.053034 
L 245.081259 226.943477 
L 246.80876 226.487861 
L 248.536261 228.661373 
L 250.263762 228.400442 
L 251.991263 229.551694 
L 253.718764 226.270985 
L 255.446265 229.694425 
L 257.173767 230.030263 
L 258.901268 229.204339 
L 260.628769 226.339226 
L 262.35627 229.774065 
L 264.083771 228.567141 
L 265.811272 229.281159 
L 267.538773 229.069071 
L 269.266275 229.503957 
L 270.993776 227.571452 
L 272.721277 228.06736 
L 274.448778 230.174019 
L 276.176279 229.551077 
L 277.90378 230.397714 
L 279.631281 226.187962 
L 281.358783 227.105543 
L 283.086284 226.222522 
L 284.813785 229.815826 
L 286.541286 229.852282 
L 288.268787 228.416919 
L 289.996288 230.066256 
L 291.723789 230.103075 
L 293.451291 218.626991 
L 295.178792 226.277841 
L 296.906293 228.968119 
L 298.633794 230.53144 
L 300.361295 230.296989 
L 303.816297 229.112401 
L 305.543799 229.281476 
L 307.2713 230.397125 
L 308.998801 230.0225 
L 312.453803 230.434615 
L 314.181304 230.851272 
L 315.908805 229.685456 
L 317.636307 230.640853 
L 319.363808 224.877455 
L 321.091309 229.277296 
L 322.81881 227.776829 
L 324.546311 229.010016 
L 326.273812 230.664459 
L 328.001313 228.535755 
L 329.728815 229.81579 
L 331.456316 228.204496 
L 333.183817 228.044535 
L 334.911318 225.123043 
L 336.638819 227.670309 
L 338.36632 230.010847 
L 340.093821 229.159694 
L 341.821323 227.641072 
L 343.548824 230.304045 
L 345.276325 231.361047 
L 347.003826 229.205273 
L 348.731327 230.788735 
L 350.458828 231.136789 
L 352.186329 230.37809 
L 355.641332 230.034072 
L 357.368833 230.00673 
L 359.096334 229.639288 
L 360.823835 227.482017 
L 362.551336 232.410676 
L 364.278837 224.639703 
L 366.006339 230.80573 
L 367.73384 231.33619 
L 369.461341 227.439903 
L 371.188842 231.358779 
L 372.916343 230.14723 
L 374.643844 231.022461 
L 376.371345 225.723231 
L 378.098847 229.922392 
L 379.826348 231.895243 
L 381.553849 230.593497 
L 383.28135 231.343979 
L 385.008851 230.676348 
L 386.736352 230.268341 
L 390.191354 231.364592 
L 391.918856 226.412083 
L 393.646357 231.072247 
L 395.373858 229.715346 
L 397.101359 230.891845 
L 398.82886 231.329842 
L 400.556361 230.637362 
L 402.283862 229.446371 
L 404.011364 229.929638 
L 404.011364 229.929638 
" style="fill:none;stroke:#8172b2;stroke-linecap:round;"/>
   </g>
   <g id="line2d_35">
    <path clip-path="url(#p997ec2df37)" d="M 60.238636 66.87941 
L 61.966138 146.223824 
L 63.693639 159.833555 
L 65.42114 165.464877 
L 67.148641 165.170292 
L 68.876142 169.591498 
L 70.603643 172.401228 
L 72.331144 177.018661 
L 74.058646 179.776455 
L 75.786147 188.970638 
L 77.513648 191.569197 
L 79.241149 190.571894 
L 80.96865 197.135833 
L 82.696151 195.154766 
L 84.423652 200.468043 
L 86.151153 201.138041 
L 87.878655 201.577525 
L 89.606156 198.384582 
L 91.333657 203.793687 
L 93.061158 206.717691 
L 94.788659 205.81588 
L 96.51616 207.638273 
L 98.243661 205.697616 
L 99.971163 212.006319 
L 101.698664 208.990232 
L 103.426165 213.303385 
L 105.153666 215.282947 
L 106.881167 214.892742 
L 108.608668 215.67248 
L 110.336169 214.870307 
L 112.063671 217.421454 
L 113.791172 219.010485 
L 115.518673 218.822302 
L 117.246174 219.696726 
L 118.973675 221.38776 
L 120.701176 222.66542 
L 122.428677 221.455194 
L 124.156179 222.230126 
L 125.88368 223.320881 
L 127.611181 211.783222 
L 129.338682 222.839891 
L 131.066183 224.718519 
L 132.793684 222.625209 
L 134.521185 223.713299 
L 136.248687 223.791842 
L 139.703689 225.089979 
L 141.43119 226.430674 
L 143.158691 226.328045 
L 144.886192 219.742912 
L 146.613693 226.067041 
L 148.341195 222.417692 
L 150.068696 227.12543 
L 151.796197 227.609821 
L 153.523698 221.579335 
L 155.251199 228.598337 
L 156.9787 227.831658 
L 158.706201 226.64492 
L 160.433703 228.556649 
L 162.161204 228.155145 
L 163.888705 229.487524 
L 165.616206 229.141248 
L 167.343707 229.621831 
L 169.071208 227.840436 
L 170.798709 230.876701 
L 172.526211 228.977587 
L 174.253712 224.556272 
L 175.981213 230.505132 
L 177.708714 229.018876 
L 179.436215 230.862554 
L 181.163716 230.191503 
L 182.891217 223.773668 
L 184.618719 230.776166 
L 186.34622 230.952288 
L 188.073721 232.435696 
L 191.528723 231.102573 
L 193.256224 232.161107 
L 194.983725 232.303711 
L 196.711227 233.071225 
L 198.438728 230.970751 
L 200.166229 232.081639 
L 201.89373 231.357238 
L 203.621231 232.953016 
L 205.348732 232.06274 
L 207.076233 233.402828 
L 208.803735 231.652421 
L 210.531236 227.60487 
L 212.258737 231.307796 
L 213.986238 233.28227 
L 215.713739 233.89237 
L 217.44124 229.64345 
L 219.168741 233.850156 
L 220.896243 231.358163 
L 222.623744 234.102563 
L 224.351245 232.808788 
L 226.078746 233.63698 
L 227.806247 230.460877 
L 229.533748 230.621301 
L 231.261249 229.11922 
L 232.988751 232.729365 
L 234.716252 232.482146 
L 236.443753 229.81482 
L 238.171254 234.390265 
L 239.898755 234.418196 
L 241.626256 233.389742 
L 243.353757 233.68878 
L 245.081259 234.891886 
L 246.80876 233.85645 
L 248.536261 230.582315 
L 250.263762 235.337527 
L 251.991263 232.03392 
L 253.718764 234.531182 
L 255.446265 234.030721 
L 257.173767 231.639281 
L 258.901268 229.491714 
L 260.628769 233.554165 
L 264.083771 234.722457 
L 265.811272 234.343761 
L 267.538773 234.302598 
L 269.266275 236.454545 
L 270.993776 235.248782 
L 272.721277 233.824229 
L 274.448778 233.071497 
L 276.176279 233.843418 
L 277.90378 229.539079 
L 279.631281 235.040403 
L 281.358783 234.786999 
L 283.086284 235.035307 
L 284.813785 234.154998 
L 286.541286 233.43601 
L 288.268787 233.347437 
L 289.996288 230.773609 
L 291.723789 231.374459 
L 293.451291 235.741707 
L 295.178792 233.704523 
L 296.906293 234.958513 
L 298.633794 233.501223 
L 300.361295 233.45772 
L 302.088796 234.310561 
L 303.816297 232.228787 
L 305.543799 235.15552 
L 307.2713 232.055948 
L 308.998801 234.199633 
L 312.453803 229.394589 
L 314.181304 235.039088 
L 315.908805 234.157455 
L 317.636307 235.723687 
L 319.363808 232.345509 
L 321.091309 233.565637 
L 322.81881 234.535753 
L 324.546311 234.652357 
L 326.273812 232.24375 
L 328.001313 234.769605 
L 329.728815 234.464056 
L 331.456316 233.348126 
L 333.183817 234.856083 
L 334.911318 233.507779 
L 336.638819 235.066376 
L 340.093821 235.475207 
L 341.821323 235.048329 
L 343.548824 233.801367 
L 347.003826 234.296794 
L 348.731327 234.879471 
L 350.458828 235.947691 
L 352.186329 234.497701 
L 353.913831 234.651631 
L 355.641332 232.410748 
L 357.368833 233.713084 
L 359.096334 235.396528 
L 360.823835 234.285486 
L 362.551336 232.691794 
L 364.278837 235.049544 
L 366.006339 234.680243 
L 367.73384 229.993943 
L 369.461341 234.941292 
L 372.916343 235.622663 
L 374.643844 234.161609 
L 376.371345 235.72424 
L 378.098847 234.784713 
L 379.826348 234.195752 
L 381.553849 233.470816 
L 383.28135 234.172953 
L 385.008851 233.300108 
L 386.736352 235.510656 
L 388.463853 233.87455 
L 390.191354 235.32221 
L 391.918856 235.490451 
L 393.646357 236.12871 
L 395.373858 235.162712 
L 397.101359 234.925939 
L 398.82886 233.753149 
L 400.556361 235.032858 
L 402.283862 235.059538 
L 404.011364 234.11272 
L 404.011364 234.11272 
" style="fill:none;stroke:#ccb974;stroke-linecap:round;"/>
   </g>
   <g id="line2d_36">
    <path clip-path="url(#p997ec2df37)" d="M 60.238636 98.756078 
L 61.966138 153.809851 
L 63.693639 164.653617 
L 65.42114 167.480287 
L 67.148641 165.953349 
L 68.876142 170.169078 
L 70.603643 175.027791 
L 72.331144 178.924177 
L 74.058646 180.125116 
L 75.786147 182.140408 
L 77.513648 187.168269 
L 79.241149 190.084065 
L 80.96865 193.554472 
L 82.696151 197.815925 
L 84.423652 189.566175 
L 86.151153 201.750726 
L 87.878655 202.754513 
L 89.606156 205.112935 
L 91.333657 205.56506 
L 93.061158 209.057412 
L 96.51616 211.640337 
L 98.243661 210.712345 
L 99.971163 210.465787 
L 101.698664 211.511208 
L 103.426165 212.92477 
L 105.153666 203.599264 
L 106.881167 218.5346 
L 108.608668 220.508911 
L 110.336169 217.127069 
L 112.063671 219.925309 
L 113.791172 221.015285 
L 115.518673 219.72842 
L 117.246174 218.716888 
L 118.973675 220.982157 
L 120.701176 224.518728 
L 122.428677 220.912918 
L 124.156179 222.6549 
L 125.88368 219.11608 
L 127.611181 224.22729 
L 129.338682 225.359951 
L 131.066183 223.905635 
L 132.793684 226.558242 
L 134.521185 224.882724 
L 136.248687 224.941525 
L 137.976188 224.70935 
L 139.703689 219.518963 
L 141.43119 225.630958 
L 143.158691 226.126331 
L 144.886192 228.040907 
L 146.613693 227.968911 
L 148.341195 227.115573 
L 150.068696 227.837398 
L 151.796197 227.45726 
L 153.523698 225.57446 
L 155.251199 225.486132 
L 156.9787 227.560932 
L 158.706201 228.050647 
L 160.433703 229.160319 
L 162.161204 227.787993 
L 163.888705 229.823236 
L 165.616206 229.286473 
L 167.343707 225.758952 
L 169.071208 228.962234 
L 172.526211 229.857424 
L 174.253712 217.707179 
L 175.981213 228.616048 
L 177.708714 230.703155 
L 179.436215 221.095841 
L 181.163716 229.479671 
L 182.891217 230.037046 
L 184.618719 227.826063 
L 186.34622 228.78652 
L 188.073721 230.562673 
L 189.801222 232.000674 
L 191.528723 230.512151 
L 193.256224 225.501404 
L 194.983725 230.845487 
L 196.711227 232.607501 
L 198.438728 231.022787 
L 200.166229 230.858872 
L 201.89373 231.814831 
L 203.621231 231.665462 
L 205.348732 228.420338 
L 207.076233 231.480498 
L 208.803735 230.308588 
L 210.531236 231.730348 
L 212.258737 229.183698 
L 213.986238 231.495734 
L 215.713739 229.967209 
L 217.44124 232.339904 
L 219.168741 232.358903 
L 220.896243 232.569023 
L 222.623744 232.323046 
L 224.351245 231.642183 
L 226.078746 231.542238 
L 227.806247 231.717561 
L 229.533748 233.185598 
L 231.261249 232.053 
L 232.988751 231.781849 
L 234.716252 233.517501 
L 236.443753 232.702821 
L 238.171254 232.921693 
L 239.898755 230.555527 
L 241.626256 231.862197 
L 243.353757 231.482974 
L 245.081259 227.003076 
L 246.80876 232.714647 
L 248.536261 233.584654 
L 250.263762 226.005193 
L 251.991263 231.840305 
L 253.718764 234.19012 
L 255.446265 233.002793 
L 257.173767 233.237616 
L 258.901268 231.925251 
L 260.628769 234.534855 
L 262.35627 233.58976 
L 264.083771 233.549685 
L 265.811272 234.901173 
L 267.538773 231.821388 
L 269.266275 232.443958 
L 270.993776 230.85908 
L 272.721277 230.191331 
L 274.448778 234.9862 
L 276.176279 234.340614 
L 277.90378 230.768113 
L 279.631281 233.809084 
L 281.358783 233.148626 
L 283.086284 233.154674 
L 284.813785 231.430793 
L 286.541286 234.182911 
L 288.268787 234.682129 
L 289.996288 233.625082 
L 291.723789 234.473079 
L 293.451291 233.830813 
L 295.178792 233.360632 
L 296.906293 234.755041 
L 298.633794 233.334242 
L 300.361295 234.425841 
L 302.088796 233.106964 
L 305.543799 233.214709 
L 307.2713 232.600337 
L 308.998801 233.928618 
L 310.726302 235.113714 
L 312.453803 232.273658 
L 314.181304 234.733956 
L 315.908805 232.600972 
L 319.363808 234.501219 
L 321.091309 232.326292 
L 322.81881 235.072814 
L 324.546311 232.696156 
L 326.273812 234.307115 
L 328.001313 233.384129 
L 329.728815 232.195078 
L 331.456316 233.618552 
L 333.183817 234.547678 
L 334.911318 232.501416 
L 336.638819 233.214074 
L 338.36632 234.498535 
L 340.093821 232.33362 
L 341.821323 234.800384 
L 343.548824 233.845395 
L 345.276325 234.303741 
L 347.003826 235.13634 
L 348.731327 234.81697 
L 350.458828 234.074922 
L 352.186329 233.931465 
L 353.913831 235.396292 
L 355.641332 234.302317 
L 357.368833 234.331972 
L 359.096334 233.599989 
L 360.823835 233.981279 
L 362.551336 233.907796 
L 364.278837 234.396558 
L 366.006339 235.118602 
L 367.73384 235.135089 
L 369.461341 233.296807 
L 371.188842 233.759152 
L 372.916343 235.766491 
L 374.643844 234.907403 
L 376.371345 233.460559 
L 378.098847 232.203467 
L 379.826348 234.436442 
L 381.553849 235.848381 
L 383.28135 234.26159 
L 385.008851 235.284195 
L 386.736352 235.386271 
L 388.463853 233.905747 
L 390.191354 233.694566 
L 391.918856 234.300776 
L 393.646357 233.420303 
L 395.373858 231.548159 
L 397.101359 233.923104 
L 398.82886 234.055642 
L 400.556361 233.75548 
L 402.283862 234.2465 
L 404.011364 235.88276 
L 404.011364 235.88276 
" style="fill:none;stroke:#64b5cd;stroke-linecap:round;"/>
   </g>
   <g id="patch_3">
    <path d="M 43.05 247.2 
L 43.05 10.8 
" style="fill:none;"/>
   </g>
   <g id="patch_4">
    <path d="M 421.2 247.2 
L 421.2 10.8 
" style="fill:none;"/>
   </g>
   <g id="patch_5">
    <path d="M 43.05 247.2 
L 421.2 247.2 
" style="fill:none;"/>
   </g>
   <g id="patch_6">
    <path d="M 43.05 10.8 
L 421.2 10.8 
" style="fill:none;"/>
   </g>
   <g id="legend_1">
    <g id="line2d_37">
     <path d="M 355.835938 23.457812 
L 375.835938 23.457812 
" style="fill:none;stroke:#4c72b0;stroke-linecap:round;"/>
    </g>
    <g id="line2d_38"/>
    <g id="text_18">
     <!-- 222 -->
     <defs>
      <path d="M 7.859375 19.96875 
L 23.25 35.359375 
L 7.90625 50.6875 
L 13.875 56.640625 
L 29.203125 41.3125 
L 44.484375 56.59375 
L 50.34375 50.6875 
L 35.109375 35.40625 
L 50.4375 20.0625 
L 44.484375 14.109375 
L 29.15625 29.4375 
L 13.765625 14.0625 
z
" id="ArialMT-d7"/>
     </defs>
     <g style="fill:#262626;" transform="translate(383.835938 26.957812)scale(0.1 -0.1)">
      <use xlink:href="#ArialMT-32"/>
      <use x="55.615234" xlink:href="#ArialMT-d7"/>
      <use x="114.013672" xlink:href="#ArialMT-32"/>
      <use x="169.628906" xlink:href="#ArialMT-d7"/>
      <use x="228.027344" xlink:href="#ArialMT-32"/>
     </g>
    </g>
    <g id="line2d_39">
     <path d="M 355.835938 37.603125 
L 375.835938 37.603125 
" style="fill:none;stroke:#55a868;stroke-linecap:round;"/>
    </g>
    <g id="line2d_40"/>
    <g id="text_19">
     <!-- 322 -->
     <defs>
      <path d="M 4.203125 18.890625 
L 12.984375 20.0625 
Q 14.5 12.59375 18.140625 9.296875 
Q 21.78125 6 27 6 
Q 33.203125 6 37.46875 10.296875 
Q 41.75 14.59375 41.75 20.953125 
Q 41.75 27 37.796875 30.921875 
Q 33.84375 34.859375 27.734375 34.859375 
Q 25.25 34.859375 21.53125 33.890625 
L 22.515625 41.609375 
Q 23.390625 41.5 23.921875 41.5 
Q 29.546875 41.5 34.03125 44.421875 
Q 38.53125 47.359375 38.53125 53.46875 
Q 38.53125 58.296875 35.25 61.46875 
Q 31.984375 64.65625 26.8125 64.65625 
Q 21.6875 64.65625 18.265625 61.421875 
Q 14.84375 58.203125 13.875 51.765625 
L 5.078125 53.328125 
Q 6.6875 62.15625 12.390625 67.015625 
Q 18.109375 71.875 26.609375 71.875 
Q 32.46875 71.875 37.390625 69.359375 
Q 42.328125 66.84375 44.9375 62.5 
Q 47.5625 58.15625 47.5625 53.265625 
Q 47.5625 48.640625 45.0625 44.828125 
Q 42.578125 41.015625 37.703125 38.765625 
Q 44.046875 37.3125 47.5625 32.6875 
Q 51.078125 28.078125 51.078125 21.140625 
Q 51.078125 11.765625 44.234375 5.25 
Q 37.40625 -1.265625 26.953125 -1.265625 
Q 17.53125 -1.265625 11.296875 4.34375 
Q 5.078125 9.96875 4.203125 18.890625 
z
" id="ArialMT-33"/>
     </defs>
     <g style="fill:#262626;" transform="translate(383.835938 41.103125)scale(0.1 -0.1)">
      <use xlink:href="#ArialMT-33"/>
      <use x="55.615234" xlink:href="#ArialMT-d7"/>
      <use x="114.013672" xlink:href="#ArialMT-32"/>
      <use x="169.628906" xlink:href="#ArialMT-d7"/>
      <use x="228.027344" xlink:href="#ArialMT-32"/>
     </g>
    </g>
    <g id="line2d_41">
     <path d="M 355.835938 51.748437 
L 375.835938 51.748437 
" style="fill:none;stroke:#c44e52;stroke-linecap:round;"/>
    </g>
    <g id="line2d_42"/>
    <g id="text_20">
     <!-- 422 -->
     <g style="fill:#262626;" transform="translate(383.835938 55.248437)scale(0.1 -0.1)">
      <use xlink:href="#ArialMT-34"/>
      <use x="55.615234" xlink:href="#ArialMT-d7"/>
      <use x="114.013672" xlink:href="#ArialMT-32"/>
      <use x="169.628906" xlink:href="#ArialMT-d7"/>
      <use x="228.027344" xlink:href="#ArialMT-32"/>
     </g>
    </g>
    <g id="line2d_43">
     <path d="M 355.835938 65.89375 
L 375.835938 65.89375 
" style="fill:none;stroke:#8172b2;stroke-linecap:round;"/>
    </g>
    <g id="line2d_44"/>
    <g id="text_21">
     <!-- 233 -->
     <g style="fill:#262626;" transform="translate(383.835938 69.39375)scale(0.1 -0.1)">
      <use xlink:href="#ArialMT-32"/>
      <use x="55.615234" xlink:href="#ArialMT-d7"/>
      <use x="114.013672" xlink:href="#ArialMT-33"/>
      <use x="169.628906" xlink:href="#ArialMT-d7"/>
      <use x="228.027344" xlink:href="#ArialMT-33"/>
     </g>
    </g>
    <g id="line2d_45">
     <path d="M 355.835938 80.039062 
L 375.835938 80.039062 
" style="fill:none;stroke:#ccb974;stroke-linecap:round;"/>
    </g>
    <g id="line2d_46"/>
    <g id="text_22">
     <!-- 333 -->
     <g style="fill:#262626;" transform="translate(383.835938 83.539062)scale(0.1 -0.1)">
      <use xlink:href="#ArialMT-33"/>
      <use x="55.615234" xlink:href="#ArialMT-d7"/>
      <use x="114.013672" xlink:href="#ArialMT-33"/>
      <use x="169.628906" xlink:href="#ArialMT-d7"/>
      <use x="228.027344" xlink:href="#ArialMT-33"/>
     </g>
    </g>
    <g id="line2d_47">
     <path d="M 355.835938 94.184375 
L 375.835938 94.184375 
" style="fill:none;stroke:#64b5cd;stroke-linecap:round;"/>
    </g>
    <g id="line2d_48"/>
    <g id="text_23">
     <!-- 433 -->
     <g style="fill:#262626;" transform="translate(383.835938 97.684375)scale(0.1 -0.1)">
      <use xlink:href="#ArialMT-34"/>
      <use x="55.615234" xlink:href="#ArialMT-d7"/>
      <use x="114.013672" xlink:href="#ArialMT-33"/>
      <use x="169.628906" xlink:href="#ArialMT-d7"/>
      <use x="228.027344" xlink:href="#ArialMT-33"/>
     </g>
    </g>
   </g>
  </g>
 </g>
 <defs>
  <clipPath id="p997ec2df37">
   <rect height="236.4" width="378.15" x="43.05" y="10.8"/>
  </clipPath>
 </defs>
</svg>
