<?xml version="1.0" encoding="utf-8" standalone="no"?>
<!DOCTYPE svg PUBLIC "-//W3C//DTD SVG 1.1//EN"
  "http://www.w3.org/Graphics/SVG/1.1/DTD/svg11.dtd">
<!-- Created with matplotlib (http://matplotlib.org/) -->
<svg height="288pt" version="1.1" viewBox="0 0 432 288" width="432pt" xmlns="http://www.w3.org/2000/svg" xmlns:xlink="http://www.w3.org/1999/xlink">
 <defs>
  <style type="text/css">
*{stroke-linecap:butt;stroke-linejoin:round;}
  </style>
 </defs>
 <g id="figure_1">
  <g id="patch_1">
   <path d="M 0 288 
L 432 288 
L 432 0 
L 0 0 
z
" style="fill:#ffffff;"/>
  </g>
  <g id="axes_1">
   <g id="patch_2">
    <path d="M 50.585 245.04 
L 419.04 245.04 
L 419.04 12.96 
L 50.585 12.96 
z
" style="fill:#eaeaf2;"/>
   </g>
   <g id="matplotlib.axis_1">
    <g id="xtick_1">
     <g id="line2d_1">
      <path clip-path="url(#pc6859d2e5b)" d="M 67.332955 245.04 
L 67.332955 12.96 
" style="fill:none;stroke:#ffffff;stroke-linecap:round;"/>
     </g>
     <g id="line2d_2"/>
     <g id="text_1">
      <!-- 0 -->
      <defs>
       <path d="M 4.15625 35.296875 
Q 4.15625 48 6.765625 55.734375 
Q 9.375 63.484375 14.515625 67.671875 
Q 19.671875 71.875 27.484375 71.875 
Q 33.25 71.875 37.59375 69.546875 
Q 41.9375 67.234375 44.765625 62.859375 
Q 47.609375 58.5 49.21875 52.21875 
Q 50.828125 45.953125 50.828125 35.296875 
Q 50.828125 22.703125 48.234375 14.96875 
Q 45.65625 7.234375 40.5 3 
Q 35.359375 -1.21875 27.484375 -1.21875 
Q 17.140625 -1.21875 11.234375 6.203125 
Q 4.15625 15.140625 4.15625 35.296875 
z
M 13.1875 35.296875 
Q 13.1875 17.671875 17.3125 11.828125 
Q 21.4375 6 27.484375 6 
Q 33.546875 6 37.671875 11.859375 
Q 41.796875 17.71875 41.796875 35.296875 
Q 41.796875 52.984375 37.671875 58.78125 
Q 33.546875 64.59375 27.390625 64.59375 
Q 21.34375 64.59375 17.71875 59.46875 
Q 13.1875 52.9375 13.1875 35.296875 
z
" id="ArialMT-30"/>
      </defs>
      <g style="fill:#262626;" transform="translate(64.552486 259.197812)scale(0.1 -0.1)">
       <use xlink:href="#ArialMT-30"/>
      </g>
     </g>
    </g>
    <g id="xtick_2">
     <g id="line2d_3">
      <path clip-path="url(#pc6859d2e5b)" d="M 109.413242 245.04 
L 109.413242 12.96 
" style="fill:none;stroke:#ffffff;stroke-linecap:round;"/>
     </g>
     <g id="line2d_4"/>
     <g id="text_2">
      <!-- 25 -->
      <defs>
       <path d="M 50.34375 8.453125 
L 50.34375 0 
L 3.03125 0 
Q 2.9375 3.171875 4.046875 6.109375 
Q 5.859375 10.9375 9.828125 15.625 
Q 13.8125 20.3125 21.34375 26.46875 
Q 33.015625 36.03125 37.109375 41.625 
Q 41.21875 47.21875 41.21875 52.203125 
Q 41.21875 57.421875 37.46875 61 
Q 33.734375 64.59375 27.734375 64.59375 
Q 21.390625 64.59375 17.578125 60.78125 
Q 13.765625 56.984375 13.71875 50.25 
L 4.6875 51.171875 
Q 5.609375 61.28125 11.65625 66.578125 
Q 17.71875 71.875 27.9375 71.875 
Q 38.234375 71.875 44.234375 66.15625 
Q 50.25 60.453125 50.25 52 
Q 50.25 47.703125 48.484375 43.546875 
Q 46.734375 39.40625 42.65625 34.8125 
Q 38.578125 30.21875 29.109375 22.21875 
Q 21.1875 15.578125 18.9375 13.203125 
Q 16.703125 10.84375 15.234375 8.453125 
z
" id="ArialMT-32"/>
       <path d="M 4.15625 18.75 
L 13.375 19.53125 
Q 14.40625 12.796875 18.140625 9.390625 
Q 21.875 6 27.15625 6 
Q 33.5 6 37.890625 10.78125 
Q 42.28125 15.578125 42.28125 23.484375 
Q 42.28125 31 38.0625 35.34375 
Q 33.84375 39.703125 27 39.703125 
Q 22.75 39.703125 19.328125 37.765625 
Q 15.921875 35.84375 13.96875 32.765625 
L 5.71875 33.84375 
L 12.640625 70.609375 
L 48.25 70.609375 
L 48.25 62.203125 
L 19.671875 62.203125 
L 15.828125 42.96875 
Q 22.265625 47.46875 29.34375 47.46875 
Q 38.71875 47.46875 45.15625 40.96875 
Q 51.609375 34.46875 51.609375 24.265625 
Q 51.609375 14.546875 45.953125 7.46875 
Q 39.0625 -1.21875 27.15625 -1.21875 
Q 17.390625 -1.21875 11.203125 4.25 
Q 5.03125 9.71875 4.15625 18.75 
z
" id="ArialMT-35"/>
      </defs>
      <g style="fill:#262626;" transform="translate(103.852305 259.197812)scale(0.1 -0.1)">
       <use xlink:href="#ArialMT-32"/>
       <use x="55.615234" xlink:href="#ArialMT-35"/>
      </g>
     </g>
    </g>
    <g id="xtick_3">
     <g id="line2d_5">
      <path clip-path="url(#pc6859d2e5b)" d="M 151.49353 245.04 
L 151.49353 12.96 
" style="fill:none;stroke:#ffffff;stroke-linecap:round;"/>
     </g>
     <g id="line2d_6"/>
     <g id="text_3">
      <!-- 50 -->
      <g style="fill:#262626;" transform="translate(145.932593 259.197812)scale(0.1 -0.1)">
       <use xlink:href="#ArialMT-35"/>
       <use x="55.615234" xlink:href="#ArialMT-30"/>
      </g>
     </g>
    </g>
    <g id="xtick_4">
     <g id="line2d_7">
      <path clip-path="url(#pc6859d2e5b)" d="M 193.573818 245.04 
L 193.573818 12.96 
" style="fill:none;stroke:#ffffff;stroke-linecap:round;"/>
     </g>
     <g id="line2d_8"/>
     <g id="text_4">
      <!-- 75 -->
      <defs>
       <path d="M 4.734375 62.203125 
L 4.734375 70.65625 
L 51.078125 70.65625 
L 51.078125 63.8125 
Q 44.234375 56.546875 37.515625 44.484375 
Q 30.8125 32.421875 27.15625 19.671875 
Q 24.515625 10.6875 23.78125 0 
L 14.75 0 
Q 14.890625 8.453125 18.0625 20.40625 
Q 21.234375 32.375 27.171875 43.484375 
Q 33.109375 54.59375 39.796875 62.203125 
z
" id="ArialMT-37"/>
      </defs>
      <g style="fill:#262626;" transform="translate(188.01288 259.197812)scale(0.1 -0.1)">
       <use xlink:href="#ArialMT-37"/>
       <use x="55.615234" xlink:href="#ArialMT-35"/>
      </g>
     </g>
    </g>
    <g id="xtick_5">
     <g id="line2d_9">
      <path clip-path="url(#pc6859d2e5b)" d="M 235.654106 245.04 
L 235.654106 12.96 
" style="fill:none;stroke:#ffffff;stroke-linecap:round;"/>
     </g>
     <g id="line2d_10"/>
     <g id="text_5">
      <!-- 100 -->
      <defs>
       <path d="M 37.25 0 
L 28.46875 0 
L 28.46875 56 
Q 25.296875 52.984375 20.140625 49.953125 
Q 14.984375 46.921875 10.890625 45.40625 
L 10.890625 53.90625 
Q 18.265625 57.375 23.78125 62.296875 
Q 29.296875 67.234375 31.59375 71.875 
L 37.25 71.875 
z
" id="ArialMT-31"/>
      </defs>
      <g style="fill:#262626;" transform="translate(227.3127 259.197812)scale(0.1 -0.1)">
       <use xlink:href="#ArialMT-31"/>
       <use x="55.615234" xlink:href="#ArialMT-30"/>
       <use x="111.230469" xlink:href="#ArialMT-30"/>
      </g>
     </g>
    </g>
    <g id="xtick_6">
     <g id="line2d_11">
      <path clip-path="url(#pc6859d2e5b)" d="M 277.734394 245.04 
L 277.734394 12.96 
" style="fill:none;stroke:#ffffff;stroke-linecap:round;"/>
     </g>
     <g id="line2d_12"/>
     <g id="text_6">
      <!-- 125 -->
      <g style="fill:#262626;" transform="translate(269.392987 259.197812)scale(0.1 -0.1)">
       <use xlink:href="#ArialMT-31"/>
       <use x="55.615234" xlink:href="#ArialMT-32"/>
       <use x="111.230469" xlink:href="#ArialMT-35"/>
      </g>
     </g>
    </g>
    <g id="xtick_7">
     <g id="line2d_13">
      <path clip-path="url(#pc6859d2e5b)" d="M 319.814681 245.04 
L 319.814681 12.96 
" style="fill:none;stroke:#ffffff;stroke-linecap:round;"/>
     </g>
     <g id="line2d_14"/>
     <g id="text_7">
      <!-- 150 -->
      <g style="fill:#262626;" transform="translate(311.473275 259.197812)scale(0.1 -0.1)">
       <use xlink:href="#ArialMT-31"/>
       <use x="55.615234" xlink:href="#ArialMT-35"/>
       <use x="111.230469" xlink:href="#ArialMT-30"/>
      </g>
     </g>
    </g>
    <g id="xtick_8">
     <g id="line2d_15">
      <path clip-path="url(#pc6859d2e5b)" d="M 361.894969 245.04 
L 361.894969 12.96 
" style="fill:none;stroke:#ffffff;stroke-linecap:round;"/>
     </g>
     <g id="line2d_16"/>
     <g id="text_8">
      <!-- 175 -->
      <g style="fill:#262626;" transform="translate(353.553563 259.197812)scale(0.1 -0.1)">
       <use xlink:href="#ArialMT-31"/>
       <use x="55.615234" xlink:href="#ArialMT-37"/>
       <use x="111.230469" xlink:href="#ArialMT-35"/>
      </g>
     </g>
    </g>
    <g id="xtick_9">
     <g id="line2d_17">
      <path clip-path="url(#pc6859d2e5b)" d="M 403.975257 245.04 
L 403.975257 12.96 
" style="fill:none;stroke:#ffffff;stroke-linecap:round;"/>
     </g>
     <g id="line2d_18"/>
     <g id="text_9">
      <!-- 200 -->
      <g style="fill:#262626;" transform="translate(395.633851 259.197812)scale(0.1 -0.1)">
       <use xlink:href="#ArialMT-32"/>
       <use x="55.615234" xlink:href="#ArialMT-30"/>
       <use x="111.230469" xlink:href="#ArialMT-30"/>
      </g>
     </g>
    </g>
    <g id="text_10">
     <!-- Epochs - BikeNYC -->
     <defs>
      <path d="M 7.90625 0 
L 7.90625 71.578125 
L 59.671875 71.578125 
L 59.671875 63.140625 
L 17.390625 63.140625 
L 17.390625 41.21875 
L 56.984375 41.21875 
L 56.984375 32.8125 
L 17.390625 32.8125 
L 17.390625 8.453125 
L 61.328125 8.453125 
L 61.328125 0 
z
" id="ArialMT-45"/>
      <path d="M 6.59375 -19.875 
L 6.59375 51.859375 
L 14.59375 51.859375 
L 14.59375 45.125 
Q 17.4375 49.078125 21 51.046875 
Q 24.5625 53.03125 29.640625 53.03125 
Q 36.28125 53.03125 41.359375 49.609375 
Q 46.4375 46.1875 49.015625 39.953125 
Q 51.609375 33.734375 51.609375 26.3125 
Q 51.609375 18.359375 48.75 11.984375 
Q 45.90625 5.609375 40.453125 2.21875 
Q 35.015625 -1.171875 29 -1.171875 
Q 24.609375 -1.171875 21.109375 0.6875 
Q 17.625 2.546875 15.375 5.375 
L 15.375 -19.875 
z
M 14.546875 25.640625 
Q 14.546875 15.625 18.59375 10.84375 
Q 22.65625 6.0625 28.421875 6.0625 
Q 34.28125 6.0625 38.453125 11.015625 
Q 42.625 15.96875 42.625 26.375 
Q 42.625 36.28125 38.546875 41.203125 
Q 34.46875 46.140625 28.8125 46.140625 
Q 23.1875 46.140625 18.859375 40.890625 
Q 14.546875 35.640625 14.546875 25.640625 
z
" id="ArialMT-70"/>
      <path d="M 3.328125 25.921875 
Q 3.328125 40.328125 11.328125 47.265625 
Q 18.015625 53.03125 27.640625 53.03125 
Q 38.328125 53.03125 45.109375 46.015625 
Q 51.90625 39.015625 51.90625 26.65625 
Q 51.90625 16.65625 48.90625 10.90625 
Q 45.90625 5.171875 40.15625 2 
Q 34.421875 -1.171875 27.640625 -1.171875 
Q 16.75 -1.171875 10.03125 5.8125 
Q 3.328125 12.796875 3.328125 25.921875 
z
M 12.359375 25.921875 
Q 12.359375 15.96875 16.703125 11.015625 
Q 21.046875 6.0625 27.640625 6.0625 
Q 34.1875 6.0625 38.53125 11.03125 
Q 42.875 16.015625 42.875 26.21875 
Q 42.875 35.84375 38.5 40.796875 
Q 34.125 45.75 27.640625 45.75 
Q 21.046875 45.75 16.703125 40.8125 
Q 12.359375 35.890625 12.359375 25.921875 
z
" id="ArialMT-6f"/>
      <path d="M 40.4375 19 
L 49.078125 17.875 
Q 47.65625 8.9375 41.8125 3.875 
Q 35.984375 -1.171875 27.484375 -1.171875 
Q 16.84375 -1.171875 10.375 5.78125 
Q 3.90625 12.75 3.90625 25.734375 
Q 3.90625 34.125 6.6875 40.421875 
Q 9.46875 46.734375 15.15625 49.875 
Q 20.84375 53.03125 27.546875 53.03125 
Q 35.984375 53.03125 41.359375 48.75 
Q 46.734375 44.484375 48.25 36.625 
L 39.703125 35.296875 
Q 38.484375 40.53125 35.375 43.15625 
Q 32.28125 45.796875 27.875 45.796875 
Q 21.234375 45.796875 17.078125 41.03125 
Q 12.9375 36.28125 12.9375 25.984375 
Q 12.9375 15.53125 16.9375 10.796875 
Q 20.953125 6.0625 27.390625 6.0625 
Q 32.5625 6.0625 36.03125 9.234375 
Q 39.5 12.40625 40.4375 19 
z
" id="ArialMT-63"/>
      <path d="M 6.59375 0 
L 6.59375 71.578125 
L 15.375 71.578125 
L 15.375 45.90625 
Q 21.53125 53.03125 30.90625 53.03125 
Q 36.671875 53.03125 40.921875 50.75 
Q 45.171875 48.484375 47 44.484375 
Q 48.828125 40.484375 48.828125 32.859375 
L 48.828125 0 
L 40.046875 0 
L 40.046875 32.859375 
Q 40.046875 39.453125 37.1875 42.453125 
Q 34.328125 45.453125 29.109375 45.453125 
Q 25.203125 45.453125 21.75 43.421875 
Q 18.3125 41.40625 16.84375 37.9375 
Q 15.375 34.46875 15.375 28.375 
L 15.375 0 
z
" id="ArialMT-68"/>
      <path d="M 3.078125 15.484375 
L 11.765625 16.84375 
Q 12.5 11.625 15.84375 8.84375 
Q 19.1875 6.0625 25.203125 6.0625 
Q 31.25 6.0625 34.171875 8.515625 
Q 37.109375 10.984375 37.109375 14.3125 
Q 37.109375 17.28125 34.515625 19 
Q 32.71875 20.171875 25.53125 21.96875 
Q 15.875 24.421875 12.140625 26.203125 
Q 8.40625 27.984375 6.46875 31.125 
Q 4.546875 34.28125 4.546875 38.09375 
Q 4.546875 41.546875 6.125 44.5 
Q 7.71875 47.46875 10.453125 49.421875 
Q 12.5 50.921875 16.03125 51.96875 
Q 19.578125 53.03125 23.640625 53.03125 
Q 29.734375 53.03125 34.34375 51.265625 
Q 38.96875 49.515625 41.15625 46.5 
Q 43.359375 43.5 44.1875 38.484375 
L 35.59375 37.3125 
Q 35.015625 41.3125 32.203125 43.546875 
Q 29.390625 45.796875 24.265625 45.796875 
Q 18.21875 45.796875 15.625 43.796875 
Q 13.03125 41.796875 13.03125 39.109375 
Q 13.03125 37.40625 14.109375 36.03125 
Q 15.1875 34.625 17.484375 33.6875 
Q 18.796875 33.203125 25.25 31.453125 
Q 34.578125 28.953125 38.25 27.359375 
Q 41.9375 25.78125 44.03125 22.75 
Q 46.140625 19.734375 46.140625 15.234375 
Q 46.140625 10.84375 43.578125 6.953125 
Q 41.015625 3.078125 36.171875 0.953125 
Q 31.34375 -1.171875 25.25 -1.171875 
Q 15.140625 -1.171875 9.84375 3.03125 
Q 4.546875 7.234375 3.078125 15.484375 
z
" id="ArialMT-73"/>
      <path id="ArialMT-20"/>
      <path d="M 3.171875 21.484375 
L 3.171875 30.328125 
L 30.171875 30.328125 
L 30.171875 21.484375 
z
" id="ArialMT-2d"/>
      <path d="M 7.328125 0 
L 7.328125 71.578125 
L 34.1875 71.578125 
Q 42.390625 71.578125 47.34375 69.40625 
Q 52.296875 67.234375 55.09375 62.71875 
Q 57.90625 58.203125 57.90625 53.265625 
Q 57.90625 48.6875 55.421875 44.625 
Q 52.9375 40.578125 47.90625 38.09375 
Q 54.390625 36.1875 57.875 31.59375 
Q 61.375 27 61.375 20.75 
Q 61.375 15.71875 59.25 11.390625 
Q 57.125 7.078125 54 4.734375 
Q 50.875 2.390625 46.15625 1.1875 
Q 41.453125 0 34.625 0 
z
M 16.796875 41.5 
L 32.28125 41.5 
Q 38.578125 41.5 41.3125 42.328125 
Q 44.921875 43.40625 46.75 45.890625 
Q 48.578125 48.390625 48.578125 52.15625 
Q 48.578125 55.71875 46.875 58.421875 
Q 45.171875 61.140625 41.984375 62.140625 
Q 38.8125 63.140625 31.109375 63.140625 
L 16.796875 63.140625 
z
M 16.796875 8.453125 
L 34.625 8.453125 
Q 39.203125 8.453125 41.0625 8.796875 
Q 44.34375 9.375 46.53125 10.734375 
Q 48.734375 12.109375 50.140625 14.71875 
Q 51.5625 17.328125 51.5625 20.75 
Q 51.5625 24.75 49.515625 27.703125 
Q 47.46875 30.671875 43.828125 31.859375 
Q 40.1875 33.0625 33.34375 33.0625 
L 16.796875 33.0625 
z
" id="ArialMT-42"/>
      <path d="M 6.640625 61.46875 
L 6.640625 71.578125 
L 15.4375 71.578125 
L 15.4375 61.46875 
z
M 6.640625 0 
L 6.640625 51.859375 
L 15.4375 51.859375 
L 15.4375 0 
z
" id="ArialMT-69"/>
      <path d="M 6.640625 0 
L 6.640625 71.578125 
L 15.4375 71.578125 
L 15.4375 30.765625 
L 36.234375 51.859375 
L 47.609375 51.859375 
L 27.78125 32.625 
L 49.609375 0 
L 38.765625 0 
L 21.625 26.515625 
L 15.4375 20.5625 
L 15.4375 0 
z
" id="ArialMT-6b"/>
      <path d="M 42.09375 16.703125 
L 51.171875 15.578125 
Q 49.03125 7.625 43.21875 3.21875 
Q 37.40625 -1.171875 28.375 -1.171875 
Q 17 -1.171875 10.328125 5.828125 
Q 3.65625 12.84375 3.65625 25.484375 
Q 3.65625 38.578125 10.390625 45.796875 
Q 17.140625 53.03125 27.875 53.03125 
Q 38.28125 53.03125 44.875 45.953125 
Q 51.46875 38.875 51.46875 26.03125 
Q 51.46875 25.25 51.421875 23.6875 
L 12.75 23.6875 
Q 13.234375 15.140625 17.578125 10.59375 
Q 21.921875 6.0625 28.421875 6.0625 
Q 33.25 6.0625 36.671875 8.59375 
Q 40.09375 11.140625 42.09375 16.703125 
z
M 13.234375 30.90625 
L 42.1875 30.90625 
Q 41.609375 37.453125 38.875 40.71875 
Q 34.671875 45.796875 27.984375 45.796875 
Q 21.921875 45.796875 17.796875 41.75 
Q 13.671875 37.703125 13.234375 30.90625 
z
" id="ArialMT-65"/>
      <path d="M 7.625 0 
L 7.625 71.578125 
L 17.328125 71.578125 
L 54.9375 15.375 
L 54.9375 71.578125 
L 64.015625 71.578125 
L 64.015625 0 
L 54.296875 0 
L 16.703125 56.25 
L 16.703125 0 
z
" id="ArialMT-4e"/>
      <path d="M 27.875 0 
L 27.875 30.328125 
L 0.296875 71.578125 
L 11.8125 71.578125 
L 25.921875 50 
Q 29.828125 43.953125 33.203125 37.890625 
Q 36.421875 43.5 41.015625 50.53125 
L 54.890625 71.578125 
L 65.921875 71.578125 
L 37.359375 30.328125 
L 37.359375 0 
z
" id="ArialMT-59"/>
      <path d="M 58.796875 25.09375 
L 68.265625 22.703125 
Q 65.28125 11.03125 57.546875 4.90625 
Q 49.8125 -1.21875 38.625 -1.21875 
Q 27.046875 -1.21875 19.796875 3.484375 
Q 12.546875 8.203125 8.765625 17.140625 
Q 4.984375 26.078125 4.984375 36.328125 
Q 4.984375 47.515625 9.25 55.828125 
Q 13.53125 64.15625 21.40625 68.46875 
Q 29.296875 72.796875 38.765625 72.796875 
Q 49.515625 72.796875 56.828125 67.328125 
Q 64.15625 61.859375 67.046875 51.953125 
L 57.71875 49.75 
Q 55.21875 57.5625 50.484375 61.125 
Q 45.75 64.703125 38.578125 64.703125 
Q 30.328125 64.703125 24.78125 60.734375 
Q 19.234375 56.78125 16.984375 50.109375 
Q 14.75 43.453125 14.75 36.375 
Q 14.75 27.25 17.40625 20.4375 
Q 20.0625 13.625 25.671875 10.25 
Q 31.296875 6.890625 37.84375 6.890625 
Q 45.796875 6.890625 51.3125 11.46875 
Q 56.84375 16.0625 58.796875 25.09375 
z
" id="ArialMT-43"/>
     </defs>
     <g style="fill:#262626;" transform="translate(189.269062 273.192969)scale(0.11 -0.11)">
      <use xlink:href="#ArialMT-45"/>
      <use x="66.699219" xlink:href="#ArialMT-70"/>
      <use x="122.314453" xlink:href="#ArialMT-6f"/>
      <use x="177.929688" xlink:href="#ArialMT-63"/>
      <use x="227.929688" xlink:href="#ArialMT-68"/>
      <use x="283.544922" xlink:href="#ArialMT-73"/>
      <use x="333.544922" xlink:href="#ArialMT-20"/>
      <use x="361.328125" xlink:href="#ArialMT-2d"/>
      <use x="394.628906" xlink:href="#ArialMT-20"/>
      <use x="422.412109" xlink:href="#ArialMT-42"/>
      <use x="489.111328" xlink:href="#ArialMT-69"/>
      <use x="511.328125" xlink:href="#ArialMT-6b"/>
      <use x="561.328125" xlink:href="#ArialMT-65"/>
      <use x="616.943359" xlink:href="#ArialMT-4e"/>
      <use x="689.160156" xlink:href="#ArialMT-59"/>
      <use x="755.859375" xlink:href="#ArialMT-43"/>
     </g>
    </g>
   </g>
   <g id="matplotlib.axis_2">
    <g id="ytick_1">
     <g id="line2d_19">
      <path clip-path="url(#pc6859d2e5b)" d="M 50.585 203.350608 
L 419.04 203.350608 
" style="fill:none;stroke:#ffffff;stroke-linecap:round;"/>
     </g>
     <g id="line2d_20"/>
     <g id="text_11">
      <!-- 50 -->
      <g style="fill:#262626;" transform="translate(32.463125 206.929514)scale(0.1 -0.1)">
       <use xlink:href="#ArialMT-35"/>
       <use x="55.615234" xlink:href="#ArialMT-30"/>
      </g>
     </g>
    </g>
    <g id="ytick_2">
     <g id="line2d_21">
      <path clip-path="url(#pc6859d2e5b)" d="M 50.585 152.487264 
L 419.04 152.487264 
" style="fill:none;stroke:#ffffff;stroke-linecap:round;"/>
     </g>
     <g id="line2d_22"/>
     <g id="text_12">
      <!-- 100 -->
      <g style="fill:#262626;" transform="translate(26.902188 156.06617)scale(0.1 -0.1)">
       <use xlink:href="#ArialMT-31"/>
       <use x="55.615234" xlink:href="#ArialMT-30"/>
       <use x="111.230469" xlink:href="#ArialMT-30"/>
      </g>
     </g>
    </g>
    <g id="ytick_3">
     <g id="line2d_23">
      <path clip-path="url(#pc6859d2e5b)" d="M 50.585 101.623921 
L 419.04 101.623921 
" style="fill:none;stroke:#ffffff;stroke-linecap:round;"/>
     </g>
     <g id="line2d_24"/>
     <g id="text_13">
      <!-- 150 -->
      <g style="fill:#262626;" transform="translate(26.902188 105.202827)scale(0.1 -0.1)">
       <use xlink:href="#ArialMT-31"/>
       <use x="55.615234" xlink:href="#ArialMT-35"/>
       <use x="111.230469" xlink:href="#ArialMT-30"/>
      </g>
     </g>
    </g>
    <g id="ytick_4">
     <g id="line2d_25">
      <path clip-path="url(#pc6859d2e5b)" d="M 50.585 50.760577 
L 419.04 50.760577 
" style="fill:none;stroke:#ffffff;stroke-linecap:round;"/>
     </g>
     <g id="line2d_26"/>
     <g id="text_14">
      <!-- 200 -->
      <g style="fill:#262626;" transform="translate(26.902188 54.339483)scale(0.1 -0.1)">
       <use xlink:href="#ArialMT-32"/>
       <use x="55.615234" xlink:href="#ArialMT-30"/>
       <use x="111.230469" xlink:href="#ArialMT-30"/>
      </g>
     </g>
    </g>
    <g id="text_15">
     <!-- Loss -->
     <defs>
      <path d="M 7.328125 0 
L 7.328125 71.578125 
L 16.796875 71.578125 
L 16.796875 8.453125 
L 52.046875 8.453125 
L 52.046875 0 
z
" id="ArialMT-4c"/>
     </defs>
     <g style="fill:#262626;" transform="translate(20.715938 140.617031)rotate(-90)scale(0.11 -0.11)">
      <use xlink:href="#ArialMT-4c"/>
      <use x="55.615234" xlink:href="#ArialMT-6f"/>
      <use x="111.230469" xlink:href="#ArialMT-73"/>
      <use x="161.230469" xlink:href="#ArialMT-73"/>
     </g>
    </g>
   </g>
   <g id="line2d_27">
    <path clip-path="url(#pc6859d2e5b)" d="M 67.332955 41.260488 
L 69.016166 70.059 
L 70.699378 101.937206 
L 72.382589 161.686718 
L 74.065801 173.068369 
L 75.749012 169.199787 
L 77.432224 179.596714 
L 79.115435 186.114697 
L 80.798647 182.766305 
L 82.481858 183.177769 
L 84.16507 182.505128 
L 85.848281 162.85407 
L 87.531493 186.629524 
L 89.214704 185.994935 
L 90.897916 189.981941 
L 92.581127 162.23259 
L 94.264339 193.664636 
L 95.94755 188.509914 
L 97.630762 182.299302 
L 99.313973 188.154346 
L 100.997185 184.40208 
L 102.680396 183.791069 
L 104.363608 192.136628 
L 106.046819 198.273532 
L 107.730031 193.182285 
L 109.413242 194.51439 
L 111.096454 207.971274 
L 112.779665 206.303194 
L 114.462877 206.867083 
L 116.146088 199.939168 
L 117.8293 197.725705 
L 119.512511 207.891855 
L 121.195723 198.811965 
L 122.878934 204.890742 
L 124.562146 200.686053 
L 126.245357 193.794052 
L 127.928569 194.820904 
L 129.61178 211.577445 
L 131.294992 207.57605 
L 132.978204 209.18789 
L 134.661415 205.383613 
L 136.344627 208.720317 
L 138.027838 187.949475 
L 139.71105 204.884898 
L 141.394261 202.278741 
L 143.077473 199.926661 
L 144.760684 209.638575 
L 148.127107 215.737721 
L 149.810319 207.709794 
L 151.49353 212.999909 
L 153.176742 214.367777 
L 154.859953 212.782806 
L 156.543165 210.497697 
L 158.226376 212.735301 
L 159.909588 211.342965 
L 161.592799 222.870485 
L 163.276011 214.156577 
L 164.959222 208.671313 
L 166.642434 209.937863 
L 168.325645 209.142343 
L 170.008857 215.594773 
L 171.692068 208.430543 
L 173.37528 218.699702 
L 175.058491 215.935366 
L 176.741703 211.205283 
L 178.424914 216.832227 
L 180.108126 210.218552 
L 181.791337 213.020266 
L 183.474549 220.828728 
L 185.15776 212.61756 
L 186.840972 217.10382 
L 188.524183 216.306771 
L 190.207395 209.317629 
L 191.890606 209.317815 
L 193.573818 218.20072 
L 195.257029 221.914973 
L 196.940241 205.259799 
L 198.623452 216.690706 
L 200.306664 212.651624 
L 201.989876 223.72966 
L 203.673087 215.952863 
L 205.356299 213.711631 
L 207.03951 215.951105 
L 208.722722 215.781525 
L 210.405933 221.034553 
L 212.089145 219.460041 
L 213.772356 213.291025 
L 215.455568 220.288235 
L 217.138779 223.443346 
L 218.821991 219.505808 
L 220.505202 224.775018 
L 222.188414 220.760406 
L 223.871625 222.856785 
L 225.554837 220.476178 
L 227.238048 215.14179 
L 228.92126 222.770137 
L 230.604471 223.990963 
L 232.287683 218.273158 
L 233.970894 215.460878 
L 235.654106 225.344537 
L 237.337317 225.618212 
L 239.020529 225.396143 
L 240.70374 216.747774 
L 242.386952 227.14061 
L 244.070163 221.43618 
L 245.753375 216.982179 
L 247.436586 217.379631 
L 249.119798 223.155474 
L 250.803009 223.389452 
L 252.486221 217.856475 
L 254.169432 219.701916 
L 255.852644 224.857049 
L 257.535855 224.271503 
L 259.219067 226.116634 
L 260.902278 220.348488 
L 262.58549 219.646482 
L 264.268701 221.021436 
L 265.951913 224.141102 
L 267.635124 220.2171 
L 269.318336 215.705365 
L 271.001548 222.009203 
L 272.684759 220.991847 
L 274.367971 221.776988 
L 276.051182 225.468809 
L 277.734394 224.805038 
L 279.417605 225.643894 
L 281.100817 228.55614 
L 282.784028 225.468646 
L 284.46724 225.722881 
L 286.150451 225.232342 
L 287.833663 223.806714 
L 289.516874 225.73 
L 292.883297 225.124086 
L 294.566509 227.950583 
L 296.24972 220.468219 
L 297.932932 224.092508 
L 299.616143 222.874651 
L 301.299355 228.336422 
L 302.982566 227.379746 
L 304.665778 225.52835 
L 306.348989 229.905451 
L 308.032201 229.004989 
L 309.715412 227.321924 
L 311.398624 229.31114 
L 313.081835 226.759593 
L 314.765047 226.535087 
L 316.448258 228.813999 
L 318.13147 227.664954 
L 319.814681 230.641404 
L 321.497893 225.156355 
L 323.181104 229.072113 
L 324.864316 231.619198 
L 326.547527 229.409687 
L 328.230739 225.121448 
L 329.91395 226.222443 
L 331.597162 226.674533 
L 333.280373 229.258202 
L 334.963585 226.557802 
L 336.646796 228.973873 
L 338.330008 222.468462 
L 340.01322 229.544327 
L 341.696431 225.339795 
L 343.379643 230.85623 
L 345.062854 229.859771 
L 346.746066 231.25783 
L 348.429277 228.342627 
L 350.112489 229.665205 
L 351.7957 232.353459 
L 353.478912 228.989065 
L 355.162123 228.938247 
L 356.845335 230.107704 
L 358.528546 227.73249 
L 360.211758 229.086425 
L 361.894969 225.667643 
L 363.578181 227.090922 
L 365.261392 230.780897 
L 366.944604 229.778417 
L 368.627815 227.90235 
L 370.311027 230.736101 
L 371.994238 231.314571 
L 373.67745 228.263425 
L 375.360661 228.346459 
L 377.043873 228.079507 
L 378.727084 230.444308 
L 380.410296 231.197219 
L 382.093507 230.480659 
L 383.776719 234.490909 
L 385.45993 230.839247 
L 387.143142 232.187801 
L 388.826353 228.85031 
L 390.509565 225.250414 
L 393.875988 231.579682 
L 395.559199 230.171244 
L 397.242411 226.649251 
L 398.925622 230.737021 
L 400.608834 232.812999 
L 402.292045 226.743764 
L 402.292045 226.743764 
" style="fill:none;stroke:#4c72b0;stroke-linecap:round;"/>
   </g>
   <g id="line2d_28">
    <path clip-path="url(#pc6859d2e5b)" d="M 67.332955 60.970266 
L 69.016166 25.180404 
L 70.699378 23.509091 
L 72.382589 56.752977 
L 74.065801 97.877902 
L 75.749012 155.514943 
L 77.432224 167.933031 
L 79.115435 179.285857 
L 80.798647 170.717802 
L 82.481858 183.825723 
L 84.16507 186.351063 
L 85.848281 178.946882 
L 87.531493 180.597667 
L 89.214704 181.739911 
L 90.897916 196.108825 
L 92.581127 182.374678 
L 94.264339 185.96497 
L 95.94755 178.144071 
L 97.630762 190.821838 
L 99.313973 178.97358 
L 100.997185 185.12343 
L 102.680396 188.544552 
L 104.363608 191.624444 
L 106.046819 201.544942 
L 107.730031 193.534027 
L 109.413242 191.377528 
L 111.096454 188.82431 
L 112.779665 191.363961 
L 114.462877 192.088218 
L 116.146088 197.165103 
L 117.8293 197.940867 
L 119.512511 201.507867 
L 121.195723 199.135115 
L 122.878934 198.121818 
L 124.562146 192.741414 
L 126.245357 189.762398 
L 127.928569 214.434414 
L 129.61178 197.757483 
L 131.294992 185.982207 
L 132.978204 205.430369 
L 134.661415 203.048401 
L 136.344627 200.27018 
L 138.027838 194.806965 
L 139.71105 206.017352 
L 141.394261 195.788217 
L 143.077473 206.871829 
L 144.760684 206.13886 
L 146.443896 196.793174 
L 148.127107 209.731867 
L 149.810319 189.293094 
L 151.49353 204.719958 
L 153.176742 203.606166 
L 154.859953 206.245785 
L 156.543165 193.43524 
L 158.226376 199.773239 
L 161.592799 210.622709 
L 163.276011 204.198309 
L 164.959222 206.129112 
L 166.642434 205.126735 
L 168.325645 204.439813 
L 170.008857 212.488955 
L 171.692068 205.506766 
L 173.37528 209.003691 
L 175.058491 205.971778 
L 176.741703 204.883419 
L 178.424914 200.039814 
L 180.108126 204.204107 
L 181.791337 203.56374 
L 183.474549 212.586357 
L 185.15776 211.987174 
L 186.840972 205.437133 
L 188.524183 203.867588 
L 190.207395 201.533079 
L 191.890606 198.592294 
L 193.573818 204.534809 
L 195.257029 210.018866 
L 196.940241 209.301132 
L 198.623452 208.158403 
L 200.306664 212.476614 
L 201.989876 217.507317 
L 203.673087 209.754099 
L 205.356299 221.899022 
L 207.03951 225.224508 
L 208.722722 215.612712 
L 210.405933 214.77772 
L 212.089145 212.600199 
L 213.772356 208.771028 
L 215.455568 214.229163 
L 217.138779 214.393846 
L 218.821991 217.104615 
L 220.505202 217.955254 
L 222.188414 208.642686 
L 223.871625 209.370761 
L 225.554837 219.817782 
L 227.238048 205.930248 
L 228.92126 215.406173 
L 230.604471 217.059337 
L 232.287683 210.030329 
L 233.970894 212.673534 
L 235.654106 213.687999 
L 237.337317 218.858541 
L 239.020529 216.08183 
L 240.70374 222.976135 
L 242.386952 213.980291 
L 244.070163 214.075271 
L 245.753375 215.294751 
L 247.436586 208.039724 
L 249.119798 213.794835 
L 250.803009 222.705415 
L 252.486221 216.995804 
L 254.169432 217.805379 
L 255.852644 222.111227 
L 257.535855 218.16184 
L 259.219067 217.30356 
L 260.902278 214.748786 
L 262.58549 213.507944 
L 264.268701 217.149354 
L 265.951913 224.06995 
L 267.635124 214.482137 
L 269.318336 217.448274 
L 271.001548 219.862886 
L 272.684759 215.054602 
L 274.367971 222.000843 
L 276.051182 220.473834 
L 277.734394 224.126236 
L 279.417605 219.466653 
L 281.100817 224.938873 
L 282.784028 221.937254 
L 284.46724 225.118873 
L 286.150451 221.788766 
L 287.833663 222.689678 
L 289.516874 217.444898 
L 291.200086 223.807484 
L 292.883297 222.860213 
L 294.566509 216.743998 
L 296.24972 222.400085 
L 297.932932 216.910994 
L 299.616143 221.375751 
L 302.982566 227.152991 
L 304.665778 225.895812 
L 306.348989 227.632328 
L 308.032201 221.732977 
L 309.715412 225.743002 
L 311.398624 222.401757 
L 313.081835 220.846598 
L 314.765047 221.465326 
L 316.448258 221.513135 
L 318.13147 220.607687 
L 319.814681 218.783565 
L 321.497893 222.290282 
L 323.181104 220.042455 
L 324.864316 226.70317 
L 326.547527 217.661061 
L 328.230739 222.910107 
L 329.91395 216.980433 
L 331.597162 227.68445 
L 333.280373 227.137128 
L 336.646796 224.729105 
L 338.330008 225.92215 
L 340.01322 225.789559 
L 341.696431 222.146686 
L 343.379643 222.101761 
L 345.062854 210.888074 
L 346.746066 224.062278 
L 348.429277 220.600232 
L 350.112489 215.65165 
L 351.7957 229.456371 
L 353.478912 227.79862 
L 355.162123 227.395707 
L 356.845335 222.192525 
L 358.528546 227.799051 
L 360.211758 226.147838 
L 361.894969 226.801028 
L 363.578181 223.570195 
L 365.261392 228.882416 
L 366.944604 228.718842 
L 368.627815 224.421149 
L 370.311027 225.034575 
L 371.994238 228.385271 
L 373.67745 230.272937 
L 375.360661 226.440644 
L 378.727084 223.469452 
L 380.410296 223.709048 
L 382.093507 228.255182 
L 383.776719 226.260638 
L 385.45993 226.63578 
L 387.143142 226.586768 
L 388.826353 226.838299 
L 390.509565 227.406148 
L 392.192776 226.550739 
L 393.875988 231.71782 
L 395.559199 225.88498 
L 397.242411 229.213094 
L 398.925622 225.623088 
L 400.608834 228.835401 
L 402.292045 222.272418 
L 402.292045 222.272418 
" style="fill:none;stroke:#55a868;stroke-linecap:round;"/>
   </g>
   <g id="patch_3">
    <path d="M 50.585 245.04 
L 50.585 12.96 
" style="fill:none;"/>
   </g>
   <g id="patch_4">
    <path d="M 419.04 245.04 
L 419.04 12.96 
" style="fill:none;"/>
   </g>
   <g id="patch_5">
    <path d="M 50.585 245.04 
L 419.04 245.04 
" style="fill:none;"/>
   </g>
   <g id="patch_6">
    <path d="M 50.585 12.96 
L 419.04 12.96 
" style="fill:none;"/>
   </g>
   <g id="legend_1">
    <g id="line2d_29">
     <path d="M 298.679062 25.617813 
L 318.679062 25.617813 
" style="fill:none;stroke:#4c72b0;stroke-linecap:round;"/>
    </g>
    <g id="line2d_30"/>
    <g id="text_16">
     <!-- With External Data -->
     <defs>
      <path d="M 20.21875 0 
L 1.21875 71.578125 
L 10.9375 71.578125 
L 21.828125 24.65625 
Q 23.578125 17.28125 24.859375 10.015625 
Q 27.59375 21.484375 28.078125 23.25 
L 41.703125 71.578125 
L 53.125 71.578125 
L 63.375 35.359375 
Q 67.234375 21.875 68.953125 10.015625 
Q 70.3125 16.796875 72.515625 25.59375 
L 83.734375 71.578125 
L 93.265625 71.578125 
L 73.640625 0 
L 64.5 0 
L 49.421875 54.546875 
Q 47.515625 61.375 47.171875 62.9375 
Q 46.046875 58.015625 45.0625 54.546875 
L 29.890625 0 
z
" id="ArialMT-57"/>
      <path d="M 25.78125 7.859375 
L 27.046875 0.09375 
Q 23.34375 -0.6875 20.40625 -0.6875 
Q 15.625 -0.6875 12.984375 0.828125 
Q 10.359375 2.34375 9.28125 4.8125 
Q 8.203125 7.28125 8.203125 15.1875 
L 8.203125 45.015625 
L 1.765625 45.015625 
L 1.765625 51.859375 
L 8.203125 51.859375 
L 8.203125 64.703125 
L 16.9375 69.96875 
L 16.9375 51.859375 
L 25.78125 51.859375 
L 25.78125 45.015625 
L 16.9375 45.015625 
L 16.9375 14.703125 
Q 16.9375 10.9375 17.40625 9.859375 
Q 17.875 8.796875 18.921875 8.15625 
Q 19.96875 7.515625 21.921875 7.515625 
Q 23.390625 7.515625 25.78125 7.859375 
z
" id="ArialMT-74"/>
      <path d="M 0.734375 0 
L 19.671875 26.953125 
L 2.15625 51.859375 
L 13.140625 51.859375 
L 21.09375 39.703125 
Q 23.34375 36.234375 24.703125 33.890625 
Q 26.859375 37.109375 28.65625 39.59375 
L 37.40625 51.859375 
L 47.90625 51.859375 
L 29.984375 27.4375 
L 49.265625 0 
L 38.484375 0 
L 27.828125 16.109375 
L 25 20.453125 
L 11.375 0 
z
" id="ArialMT-78"/>
      <path d="M 6.5 0 
L 6.5 51.859375 
L 14.40625 51.859375 
L 14.40625 44 
Q 17.4375 49.515625 20 51.265625 
Q 22.5625 53.03125 25.640625 53.03125 
Q 30.078125 53.03125 34.671875 50.203125 
L 31.640625 42.046875 
Q 28.421875 43.953125 25.203125 43.953125 
Q 22.3125 43.953125 20.015625 42.21875 
Q 17.71875 40.484375 16.75 37.40625 
Q 15.28125 32.71875 15.28125 27.15625 
L 15.28125 0 
z
" id="ArialMT-72"/>
      <path d="M 6.59375 0 
L 6.59375 51.859375 
L 14.5 51.859375 
L 14.5 44.484375 
Q 20.21875 53.03125 31 53.03125 
Q 35.6875 53.03125 39.625 51.34375 
Q 43.5625 49.65625 45.515625 46.921875 
Q 47.46875 44.1875 48.25 40.4375 
Q 48.734375 37.984375 48.734375 31.890625 
L 48.734375 0 
L 39.9375 0 
L 39.9375 31.546875 
Q 39.9375 36.921875 38.90625 39.578125 
Q 37.890625 42.234375 35.28125 43.8125 
Q 32.671875 45.40625 29.15625 45.40625 
Q 23.53125 45.40625 19.453125 41.84375 
Q 15.375 38.28125 15.375 28.328125 
L 15.375 0 
z
" id="ArialMT-6e"/>
      <path d="M 40.4375 6.390625 
Q 35.546875 2.25 31.03125 0.53125 
Q 26.515625 -1.171875 21.34375 -1.171875 
Q 12.796875 -1.171875 8.203125 3 
Q 3.609375 7.171875 3.609375 13.671875 
Q 3.609375 17.484375 5.34375 20.625 
Q 7.078125 23.78125 9.890625 25.6875 
Q 12.703125 27.59375 16.21875 28.5625 
Q 18.796875 29.25 24.03125 29.890625 
Q 34.671875 31.15625 39.703125 32.90625 
Q 39.75 34.71875 39.75 35.203125 
Q 39.75 40.578125 37.25 42.78125 
Q 33.890625 45.75 27.25 45.75 
Q 21.046875 45.75 18.09375 43.578125 
Q 15.140625 41.40625 13.71875 35.890625 
L 5.125 37.0625 
Q 6.296875 42.578125 8.984375 45.96875 
Q 11.671875 49.359375 16.75 51.1875 
Q 21.828125 53.03125 28.515625 53.03125 
Q 35.15625 53.03125 39.296875 51.46875 
Q 43.453125 49.90625 45.40625 47.53125 
Q 47.359375 45.171875 48.140625 41.546875 
Q 48.578125 39.3125 48.578125 33.453125 
L 48.578125 21.734375 
Q 48.578125 9.46875 49.140625 6.21875 
Q 49.703125 2.984375 51.375 0 
L 42.1875 0 
Q 40.828125 2.734375 40.4375 6.390625 
z
M 39.703125 26.03125 
Q 34.90625 24.078125 25.34375 22.703125 
Q 19.921875 21.921875 17.671875 20.9375 
Q 15.4375 19.96875 14.203125 18.09375 
Q 12.984375 16.21875 12.984375 13.921875 
Q 12.984375 10.40625 15.640625 8.0625 
Q 18.3125 5.71875 23.4375 5.71875 
Q 28.515625 5.71875 32.46875 7.9375 
Q 36.421875 10.15625 38.28125 14.015625 
Q 39.703125 17 39.703125 22.796875 
z
" id="ArialMT-61"/>
      <path d="M 6.390625 0 
L 6.390625 71.578125 
L 15.1875 71.578125 
L 15.1875 0 
z
" id="ArialMT-6c"/>
      <path d="M 7.71875 0 
L 7.71875 71.578125 
L 32.375 71.578125 
Q 40.71875 71.578125 45.125 70.5625 
Q 51.265625 69.140625 55.609375 65.4375 
Q 61.28125 60.640625 64.078125 53.1875 
Q 66.890625 45.75 66.890625 36.1875 
Q 66.890625 28.03125 64.984375 21.734375 
Q 63.09375 15.4375 60.109375 11.296875 
Q 57.125 7.171875 53.578125 4.796875 
Q 50.046875 2.4375 45.046875 1.21875 
Q 40.046875 0 33.546875 0 
z
M 17.1875 8.453125 
L 32.46875 8.453125 
Q 39.546875 8.453125 43.578125 9.765625 
Q 47.609375 11.078125 50 13.484375 
Q 53.375 16.84375 55.25 22.53125 
Q 57.125 28.21875 57.125 36.328125 
Q 57.125 47.5625 53.4375 53.59375 
Q 49.75 59.625 44.484375 61.671875 
Q 40.671875 63.140625 32.234375 63.140625 
L 17.1875 63.140625 
z
" id="ArialMT-44"/>
     </defs>
     <g style="fill:#262626;" transform="translate(326.679062 29.117813)scale(0.1 -0.1)">
      <use xlink:href="#ArialMT-57"/>
      <use x="94.384766" xlink:href="#ArialMT-69"/>
      <use x="116.601562" xlink:href="#ArialMT-74"/>
      <use x="144.384766" xlink:href="#ArialMT-68"/>
      <use x="200" xlink:href="#ArialMT-20"/>
      <use x="227.783203" xlink:href="#ArialMT-45"/>
      <use x="294.482422" xlink:href="#ArialMT-78"/>
      <use x="344.482422" xlink:href="#ArialMT-74"/>
      <use x="372.265625" xlink:href="#ArialMT-65"/>
      <use x="427.880859" xlink:href="#ArialMT-72"/>
      <use x="461.181641" xlink:href="#ArialMT-6e"/>
      <use x="516.796875" xlink:href="#ArialMT-61"/>
      <use x="572.412109" xlink:href="#ArialMT-6c"/>
      <use x="594.628906" xlink:href="#ArialMT-20"/>
      <use x="622.412109" xlink:href="#ArialMT-44"/>
      <use x="694.628906" xlink:href="#ArialMT-61"/>
      <use x="750.244141" xlink:href="#ArialMT-74"/>
      <use x="778.027344" xlink:href="#ArialMT-61"/>
     </g>
    </g>
    <g id="line2d_31">
     <path d="M 298.679062 39.763125 
L 318.679062 39.763125 
" style="fill:none;stroke:#55a868;stroke-linecap:round;"/>
    </g>
    <g id="line2d_32"/>
    <g id="text_17">
     <!-- No External Data -->
     <g style="fill:#262626;" transform="translate(326.679062 43.263125)scale(0.1 -0.1)">
      <use xlink:href="#ArialMT-4e"/>
      <use x="72.216797" xlink:href="#ArialMT-6f"/>
      <use x="127.832031" xlink:href="#ArialMT-20"/>
      <use x="155.615234" xlink:href="#ArialMT-45"/>
      <use x="222.314453" xlink:href="#ArialMT-78"/>
      <use x="272.314453" xlink:href="#ArialMT-74"/>
      <use x="300.097656" xlink:href="#ArialMT-65"/>
      <use x="355.712891" xlink:href="#ArialMT-72"/>
      <use x="389.013672" xlink:href="#ArialMT-6e"/>
      <use x="444.628906" xlink:href="#ArialMT-61"/>
      <use x="500.244141" xlink:href="#ArialMT-6c"/>
      <use x="522.460938" xlink:href="#ArialMT-20"/>
      <use x="550.244141" xlink:href="#ArialMT-44"/>
      <use x="622.460938" xlink:href="#ArialMT-61"/>
      <use x="678.076172" xlink:href="#ArialMT-74"/>
      <use x="705.859375" xlink:href="#ArialMT-61"/>
     </g>
    </g>
   </g>
  </g>
 </g>
 <defs>
  <clipPath id="pc6859d2e5b">
   <rect height="232.08" width="368.455" x="50.585" y="12.96"/>
  </clipPath>
 </defs>
</svg>
